<svg xmlns="http://www.w3.org/2000/svg" xmlns:xlink="http://www.w3.org/1999/xlink" width="500" zoomAndPan="magnify" viewBox="0 0 375 374.999991" height="500" preserveAspectRatio="xMidYMid meet" version="1.0"><rect x="-37.5" width="450" fill="#ffffff" y="-37.499999" height="449.999989" fill-opacity="1"/><rect x="-37.5" width="450" fill="#ffffff" y="-37.499999" height="449.999989" fill-opacity="1"/><path fill="#006b64" d="M 154.773438 175.546875 C 152.972656 177.675781 150.164062 180.648438 145.738281 184.585938 C 145.714844 184.609375 145.691406 184.632812 145.664062 184.660156 C 145.597656 184.714844 145.539062 184.769531 145.464844 184.835938 C 142.445312 187.523438 139.394531 189.847656 136.554688 191.8125 C 136.546875 191.8125 136.535156 191.820312 136.535156 191.820312 C 136.058594 192.117188 135.59375 192.40625 135.109375 192.6875 C 135.101562 192.6875 135.101562 192.695312 135.089844 192.695312 C 134.535156 192.878906 133.628906 192.921875 133.390625 191.378906 C 133.371094 191.304688 133.363281 191.226562 133.359375 191.132812 C 133.1875 189.445312 133.855469 188.292969 134.351562 187.6875 C 134.351562 187.683594 134.355469 187.683594 134.355469 187.667969 C 134.507812 187.515625 134.664062 187.359375 134.816406 187.199219 C 134.820312 187.191406 134.832031 187.179688 134.832031 187.179688 C 142 179.835938 148.457031 172.175781 151.394531 165.839844 C 151.398438 165.835938 151.398438 165.816406 151.414062 165.808594 C 151.414062 165.804688 151.417969 165.804688 151.417969 165.792969 C 153.25 162.382812 153.695312 159.824219 153.523438 157.941406 C 153.523438 157.941406 153.523438 157.933594 153.523438 157.921875 C 153.554688 157.574219 153.882812 157.488281 154.082031 157.945312 C 154.082031 157.953125 154.085938 157.964844 154.085938 157.96875 C 154.570312 159.21875 155.003906 160.46875 155.382812 161.660156 C 155.972656 163.476562 156.449219 165.1875 156.808594 166.640625 C 157.613281 169.761719 156.835938 173.066406 154.761719 175.535156 M 158.617188 181.832031 C 157.992188 185.105469 149.167969 195.875 134.851562 202.535156 C 133.914062 202.96875 133.265625 203.824219 133.089844 204.84375 C 133.011719 205.320312 132.917969 205.796875 132.820312 206.261719 C 132.648438 207.046875 133.421875 207.730469 134.179688 207.460938 C 141.210938 205.054688 147.96875 201.035156 153.4375 196.933594 C 153.769531 196.695312 154.191406 196.359375 154.636719 196 C 157.152344 193.980469 158.761719 191.011719 158.96875 187.792969 C 159.019531 187.179688 159.042969 186.554688 159.066406 185.945312 C 159.074219 185.394531 159.195312 182.953125 159.195312 182.046875 C 159.195312 181.316406 158.714844 181.269531 158.609375 181.824219 Z M 153.390625 204.035156 C 150.066406 208.964844 139.722656 214.75 129.894531 216.933594 C 129.3125 217.058594 128.832031 217.4375 128.546875 217.949219 C 128.542969 217.96875 128.542969 217.980469 128.53125 218 C 127.746094 219.460938 128.972656 221.1875 130.609375 220.9375 C 135.496094 220.183594 139.847656 218.511719 143.78125 216.632812 C 147.171875 215.03125 150.015625 212.410156 151.796875 209.101562 C 152.398438 208.03125 153.535156 205.636719 154.019531 204.5 C 154.320312 203.769531 153.75 203.484375 153.390625 204.035156 Z M 144.410156 141.542969 C 142.507812 139.316406 140.441406 137.222656 138.238281 135.296875 C 138.921875 143.34375 136.210938 159.296875 127.992188 171.898438 C 127.5625 172.558594 126.570312 172.503906 126.191406 171.808594 C 125.894531 171.257812 125.585938 170.71875 125.261719 170.183594 C 125.085938 169.890625 125.066406 169.535156 125.207031 169.230469 C 130.617188 157.023438 131.375 142.976562 129.710938 133.148438 C 129.199219 130.09375 127.203125 127.511719 124.40625 126.171875 C 122.019531 125.027344 119.546875 124.023438 116.996094 123.191406 C 120.722656 131.011719 124.113281 147.109375 120.863281 161.824219 C 120.683594 162.628906 119.675781 162.910156 119.09375 162.328125 C 118.695312 161.941406 118.292969 161.5625 117.886719 161.1875 C 117.65625 160.96875 117.53125 160.675781 117.550781 160.363281 C 118.273438 147.082031 113.855469 133.6875 108.636719 124.851562 C 107.019531 122.113281 104.15625 120.394531 100.980469 120.242188 C 99.992188 120.191406 99.007812 120.167969 98.011719 120.167969 C 96.460938 120.167969 94.921875 120.25 93.382812 120.363281 C 99.839844 126.699219 108.453125 139.835938 110.851562 154.078125 C 110.996094 154.945312 110.097656 155.613281 109.3125 155.199219 C 108.824219 154.945312 108.328125 154.707031 107.828125 154.464844 C 107.570312 154.355469 107.375 154.132812 107.289062 153.863281 C 103.140625 141.832031 94.546875 131.496094 86.585938 125.164062 C 84.046875 123.136719 80.628906 122.574219 77.566406 123.652344 C 75.269531 124.457031 73.035156 125.394531 70.875 126.441406 C 79.105469 130.105469 90.8125 138.332031 98.113281 149.542969 C 98.621094 150.320312 97.980469 151.3125 97.070312 151.164062 C 96.414062 151.066406 95.757812 150.980469 95.097656 150.910156 C 94.851562 150.882812 94.625 150.773438 94.460938 150.582031 C 86.535156 142.054688 75.851562 136.28125 66.691406 133.375 C 63.542969 132.371094 60.105469 133.039062 57.597656 135.179688 C 55.777344 136.742188 54.050781 138.398438 52.429688 140.148438 C 60.832031 140.609375 72.847656 143.382812 82.945312 149.566406 C 83.769531 150.074219 83.527344 151.324219 82.578125 151.519531 C 81.691406 151.703125 80.808594 151.925781 79.9375 152.164062 C 79.730469 152.230469 79.503906 152.210938 79.304688 152.132812 C 69.890625 148.480469 59.617188 147.433594 51.109375 148.007812 C 47.816406 148.234375 44.855469 150.089844 43.304688 152.996094 C 42.175781 155.101562 41.175781 157.277344 40.300781 159.519531 C 47.242188 157.21875 56.984375 155.546875 66.8125 156.324219 C 67.960938 156.414062 68.011719 157.621094 66.820312 158.472656 C 65.765625 159.21875 65.550781 159.453125 64.535156 160.375 C 64.253906 160.625 64.050781 160.882812 63.722656 160.925781 C 55.773438 161.808594 48.160156 164.238281 41.933594 167.222656 C 38.972656 168.636719 36.929688 171.457031 36.574219 174.714844 C 36.3125 177.050781 36.1875 179.425781 36.214844 181.84375 L 36.21875 181.84375 C 40.648438 178.117188 46.726562 174.140625 53.617188 171.195312 C 54.53125 170.796875 55.167969 171.097656 54.8125 172.199219 C 54.503906 173.152344 54.4375 173.355469 54.144531 174.378906 C 54.089844 174.585938 53.9375 174.757812 53.757812 174.886719 C 49.050781 178.097656 43.539062 183.828125 40.421875 187.9375 C 38.503906 190.472656 37.46875 194.195312 38.300781 197.257812 C 38.9375 199.617188 39.714844 201.910156 40.605469 204.125 C 42.632812 200.28125 45.4375 195.992188 48.898438 191.855469 C 49.511719 191.128906 51.011719 191.542969 50.773438 192.46875 C 49.488281 197.375 47.058594 204.359375 46.703125 208.019531 C 46.390625 211.175781 46.328125 215.105469 48.238281 217.644531 C 49.714844 219.613281 51.3125 221.488281 53.019531 223.261719 C 53.332031 219.890625 53.972656 216.101562 55 212.171875 C 55.253906 211.195312 56.671875 211.269531 56.804688 212.269531 C 57.609375 217.859375 58.597656 223.316406 65.691406 231.078125 C 66.964844 232.460938 76.167969 239.632812 89.105469 241.714844 L 89.113281 241.714844 C 89.160156 241.730469 89.203125 241.730469 89.246094 241.738281 C 91.671875 242.125 94.214844 242.339844 96.871094 242.277344 C 96.546875 242.269531 96.230469 242.253906 95.894531 242.246094 C 96.433594 242.265625 96.964844 242.269531 97.492188 242.269531 L 97.582031 242.269531 C 98.347656 242.277344 99.105469 242.265625 99.859375 242.238281 C 100.195312 242.222656 100.539062 242.210938 100.875 242.191406 C 101.050781 242.183594 101.207031 242.171875 101.335938 242.167969 C 114.773438 241.25 126.125 235.203125 133.335938 230.222656 L 133.339844 230.222656 C 133.394531 230.179688 133.449219 230.140625 133.511719 230.109375 C 133.519531 230.105469 133.53125 230.09375 133.53125 230.09375 C 138.519531 226.628906 141.472656 223.714844 141.6875 223.457031 C 138.121094 225.84375 127.628906 230.160156 120.34375 231.464844 C 117.679688 231.945312 115.171875 232.296875 112.800781 232.507812 L 112.796875 232.507812 C 83.3125 235.21875 76.390625 218.160156 74.804688 208.558594 C 74.796875 208.515625 74.796875 208.476562 74.785156 208.445312 C 74.429688 205.375 74.285156 202.015625 74.40625 198.367188 C 74.429688 197.480469 74.472656 196.5625 74.503906 195.636719 C 74.558594 194.195312 74.609375 192.730469 74.640625 191.261719 C 74.644531 190.707031 74.65625 190.15625 74.65625 189.609375 C 74.65625 189.414062 74.65625 189.210938 74.652344 189.023438 C 74.601562 186.789062 74.472656 184.789062 74.277344 182.996094 C 74.277344 182.976562 74.277344 182.964844 74.273438 182.964844 C 73.53125 176.121094 71.835938 172.320312 70.183594 170.203125 C 70.09375 170.082031 70.136719 169.910156 70.277344 169.847656 C 71.207031 169.445312 72.085938 169.144531 72.945312 168.929688 C 72.945312 168.925781 72.949219 168.925781 72.949219 168.925781 C 73.285156 168.84375 73.628906 168.773438 73.953125 168.71875 C 73.972656 168.71875 73.980469 168.71875 73.996094 168.710938 C 74.320312 168.660156 74.632812 168.625 74.953125 168.601562 L 74.996094 168.601562 C 78.292969 168.355469 81.027344 169.691406 83.910156 172.277344 C 88.898438 176.765625 90.09375 185.085938 94.019531 190.992188 C 94.933594 192.359375 95.96875 193.550781 97.09375 194.578125 C 99.925781 196.628906 103.226562 197.203125 106.273438 197.050781 C 114.820312 196.625 123.058594 189.15625 129.785156 180.394531 C 129.832031 180.257812 129.914062 180.128906 130.015625 180.015625 C 130.121094 179.910156 130.21875 179.792969 130.324219 179.691406 C 138.921875 168.265625 144.929688 154.910156 145.746094 152.070312 L 145.75 152.070312 C 145.984375 151.207031 146.199219 150.351562 146.375 149.53125 C 146.980469 146.703125 146.277344 143.730469 144.398438 141.539062 Z M 144.410156 141.542969 " fill-opacity="1" fill-rule="nonzero"/><path fill="#006b64" d="M 214.316406 167.757812 L 211.644531 167.757812 L 211.644531 169.023438 L 211.980469 169.125 C 213.367188 169.550781 214.324219 170.835938 214.324219 172.289062 L 214.324219 195.4375 L 220.058594 195.4375 L 220.058594 167.761719 L 214.324219 167.761719 Z M 214.316406 167.757812 " fill-opacity="1" fill-rule="nonzero"/><path fill="#006b64" d="M 194.960938 184.152344 L 202.902344 184.152344 L 202.902344 189.1875 C 200.707031 190.222656 198.03125 190.734375 194.882812 190.734375 C 191.523438 190.734375 188.945312 189.898438 187.152344 188.214844 C 185.351562 186.539062 184.460938 184.109375 184.460938 180.925781 C 184.460938 177.742188 185.285156 175.4375 186.945312 173.679688 C 188.597656 171.921875 190.988281 171.042969 194.109375 171.042969 C 196.179688 171.042969 197.847656 171.402344 199.128906 172.125 C 200.40625 172.847656 201.332031 173.972656 201.902344 175.496094 L 207.636719 174.761719 C 206.859375 172.203125 205.359375 170.167969 203.136719 168.636719 C 200.914062 167.113281 197.960938 166.347656 194.261719 166.347656 C 191.160156 166.347656 188.429688 166.929688 186.070312 168.09375 C 183.707031 169.253906 181.863281 170.925781 180.542969 173.109375 C 179.226562 175.296875 178.566406 177.921875 178.566406 181 C 178.566406 184.078125 179.21875 186.605469 180.523438 188.753906 C 181.828125 190.902344 183.699219 192.546875 186.140625 193.691406 C 188.582031 194.84375 191.496094 195.417969 194.882812 195.417969 C 197.414062 195.417969 199.84375 195.085938 202.167969 194.425781 C 204.496094 193.765625 206.507812 192.828125 208.214844 191.617188 L 208.214844 179.757812 L 194.960938 179.757812 Z M 194.960938 184.152344 " fill-opacity="1" fill-rule="nonzero"/><path fill="#006b64" d="M 252.945312 167.757812 L 225.308594 167.757812 L 225.308594 172.558594 L 236.277344 172.558594 L 236.277344 195.429688 L 242.015625 195.429688 L 242.015625 172.558594 L 252.945312 172.558594 Z M 252.945312 167.757812 " fill-opacity="1" fill-rule="nonzero"/><path fill="#006b64" d="M 314.414062 167.757812 L 304.261719 189.347656 L 294.066406 167.757812 L 285.28125 167.757812 L 285.28125 169.023438 C 286.519531 169.394531 287.355469 170.535156 287.355469 171.824219 L 287.355469 195.429688 L 292.667969 195.429688 L 292.667969 175.816406 L 301.890625 195.429688 L 306.347656 195.429688 L 315.570312 175.625 L 315.570312 195.429688 L 320.953125 195.429688 L 320.953125 167.757812 L 314.40625 167.757812 Z M 314.414062 167.757812 " fill-opacity="1" fill-rule="nonzero"/><path fill="#006b64" d="M 269.726562 167.75 L 263.324219 167.75 L 250.539062 195.421875 L 256.464844 195.421875 L 258.507812 190.71875 C 263.753906 187.585938 270.332031 186.941406 272.699219 186.800781 L 276.441406 195.421875 L 282.558594 195.421875 L 269.730469 167.75 Z M 261.273438 184.320312 L 261.648438 183.484375 L 261.652344 183.484375 L 266.464844 172.640625 L 270.71875 182.289062 C 268.378906 182.515625 264.878906 183.054688 261.273438 184.320312 Z M 261.273438 184.320312 " fill-opacity="1" fill-rule="nonzero"/><path fill="#006b64" d="M 189.570312 210.125 C 187.652344 210.125 186.34375 209.320312 186.269531 207.597656 C 186.269531 207.539062 186.3125 207.503906 186.363281 207.503906 L 187.832031 207.503906 C 187.878906 207.503906 187.921875 207.546875 187.933594 207.597656 C 188.039062 208.410156 188.40625 208.9375 189.601562 208.9375 C 190.546875 208.9375 191.070312 208.65625 191.070312 207.96875 C 191.070312 206.324219 186.417969 207.625 186.417969 204.730469 C 186.417969 203.367188 187.476562 202.515625 189.34375 202.515625 C 191.050781 202.515625 192.226562 203.171875 192.445312 204.730469 C 192.445312 204.78125 192.414062 204.824219 192.359375 204.824219 L 190.886719 204.824219 C 190.835938 204.824219 190.792969 204.78125 190.78125 204.730469 C 190.695312 204.078125 190.167969 203.710938 189.28125 203.710938 C 188.535156 203.710938 187.992188 203.964844 187.992188 204.574219 C 187.992188 206.121094 192.660156 204.867188 192.660156 207.742188 C 192.660156 209.285156 191.472656 210.117188 189.570312 210.117188 Z M 189.570312 210.125 " fill-opacity="1" fill-rule="nonzero"/><path fill="#006b64" d="M 197.640625 210.117188 C 195.40625 210.117188 194.019531 208.570312 194.019531 206.351562 C 194.019531 204.136719 195.433594 202.523438 197.628906 202.523438 C 199.203125 202.523438 200.46875 203.164062 200.882812 205.109375 C 200.898438 205.160156 200.867188 205.203125 200.8125 205.203125 L 199.445312 205.203125 C 199.398438 205.203125 199.34375 205.160156 199.332031 205.109375 C 199.121094 204.234375 198.554688 203.742188 197.605469 203.742188 C 196.335938 203.742188 195.644531 204.71875 195.644531 206.339844 C 195.644531 207.964844 196.355469 208.898438 197.59375 208.898438 C 198.613281 208.898438 199.164062 208.347656 199.347656 207.355469 C 199.359375 207.308594 199.410156 207.265625 199.464844 207.265625 L 200.859375 207.265625 C 200.910156 207.265625 200.945312 207.308594 200.933594 207.355469 C 200.535156 209.347656 199.34375 210.109375 197.636719 210.109375 Z M 197.640625 210.117188 " fill-opacity="1" fill-rule="nonzero"/><path fill="#006b64" d="M 207.304688 209.957031 C 207.253906 209.957031 207.210938 209.914062 207.210938 209.867188 L 207.253906 206.660156 L 204.074219 206.660156 L 204.117188 209.867188 C 204.117188 209.914062 204.074219 209.957031 204.023438 209.957031 L 202.585938 209.957031 C 202.539062 209.957031 202.496094 209.914062 202.496094 209.867188 L 202.542969 206.316406 L 202.496094 202.765625 C 202.496094 202.71875 202.539062 202.675781 202.585938 202.675781 L 204.023438 202.675781 C 204.074219 202.675781 204.117188 202.71875 204.117188 202.765625 L 204.085938 205.484375 L 207.25 205.484375 L 207.21875 202.765625 C 207.21875 202.71875 207.261719 202.675781 207.3125 202.675781 L 208.75 202.675781 C 208.796875 202.675781 208.839844 202.71875 208.839844 202.765625 L 208.792969 206.316406 L 208.839844 209.867188 C 208.839844 209.914062 208.796875 209.957031 208.75 209.957031 Z M 207.304688 209.957031 " fill-opacity="1" fill-rule="nonzero"/><path fill="#006b64" d="M 214.078125 210.117188 C 211.851562 210.117188 210.40625 208.570312 210.40625 206.339844 C 210.40625 204.113281 211.84375 202.523438 214.078125 202.523438 C 216.3125 202.523438 217.761719 203.992188 217.761719 206.339844 C 217.761719 208.570312 216.304688 210.117188 214.078125 210.117188 Z M 214.089844 208.898438 C 215.402344 208.898438 216.128906 207.933594 216.128906 206.339844 C 216.128906 204.75 215.414062 203.742188 214.078125 203.742188 C 212.746094 203.742188 212.042969 204.71875 212.042969 206.339844 C 212.042969 207.964844 212.78125 208.898438 214.089844 208.898438 Z M 214.089844 208.898438 " fill-opacity="1" fill-rule="nonzero"/><path fill="#006b64" d="M 222.847656 210.117188 C 220.621094 210.117188 219.175781 208.570312 219.175781 206.339844 C 219.175781 204.113281 220.613281 202.523438 222.847656 202.523438 C 225.082031 202.523438 226.53125 203.992188 226.53125 206.339844 C 226.53125 208.570312 225.078125 210.117188 222.847656 210.117188 Z M 222.859375 208.898438 C 224.171875 208.898438 224.898438 207.933594 224.898438 206.339844 C 224.898438 204.75 224.183594 203.742188 222.847656 203.742188 C 221.515625 203.742188 220.8125 204.71875 220.8125 206.339844 C 220.8125 207.964844 221.550781 208.898438 222.859375 208.898438 Z M 222.859375 208.898438 " fill-opacity="1" fill-rule="nonzero"/><path fill="#006b64" d="M 228.199219 209.957031 C 228.148438 209.957031 228.105469 209.914062 228.105469 209.867188 L 228.15625 206.316406 L 228.105469 202.765625 C 228.105469 202.71875 228.148438 202.675781 228.199219 202.675781 L 229.625 202.675781 C 229.671875 202.675781 229.714844 202.71875 229.714844 202.765625 L 229.671875 206.21875 L 229.714844 208.777344 L 232.671875 208.777344 C 232.71875 208.777344 232.761719 208.820312 232.761719 208.867188 L 232.761719 209.859375 C 232.761719 209.910156 232.71875 209.953125 232.671875 209.953125 L 228.199219 209.953125 Z M 228.199219 209.957031 " fill-opacity="1" fill-rule="nonzero"/><path fill="#006b64" d="M 240.578125 210.117188 C 238.351562 210.117188 236.90625 208.570312 236.90625 206.339844 C 236.90625 204.113281 238.34375 202.523438 240.578125 202.523438 C 242.8125 202.523438 244.261719 203.992188 244.261719 206.339844 C 244.261719 208.570312 242.804688 210.117188 240.578125 210.117188 Z M 240.589844 208.898438 C 241.898438 208.898438 242.628906 207.933594 242.628906 206.339844 C 242.628906 204.75 241.910156 203.742188 240.578125 203.742188 C 239.242188 203.742188 238.539062 204.71875 238.539062 206.339844 C 238.539062 207.964844 239.28125 208.898438 240.589844 208.898438 Z M 240.589844 208.898438 " fill-opacity="1" fill-rule="nonzero"/><path fill="#006b64" d="M 245.925781 209.957031 C 245.878906 209.957031 245.835938 209.914062 245.835938 209.867188 L 245.882812 206.316406 L 245.835938 202.765625 C 245.835938 202.71875 245.878906 202.675781 245.925781 202.675781 L 250.679688 202.675781 C 250.730469 202.675781 250.773438 202.71875 250.773438 202.765625 L 250.773438 203.753906 C 250.773438 203.800781 250.730469 203.84375 250.679688 203.84375 L 247.445312 203.84375 L 247.402344 205.839844 L 250.535156 205.839844 C 250.582031 205.839844 250.625 205.882812 250.625 205.929688 L 250.625 206.921875 C 250.625 206.972656 250.582031 207.015625 250.535156 207.015625 L 247.402344 207.015625 L 247.445312 209.855469 C 247.445312 209.902344 247.402344 209.945312 247.351562 209.945312 L 245.925781 209.945312 Z M 245.925781 209.957031 " fill-opacity="1" fill-rule="nonzero"/><path fill="#006b64" d="M 258.699219 210.117188 C 256.464844 210.117188 255.074219 208.570312 255.074219 206.351562 C 255.074219 204.136719 256.488281 202.523438 258.6875 202.523438 C 260.257812 202.523438 261.527344 203.164062 261.941406 205.109375 C 261.953125 205.160156 261.921875 205.203125 261.867188 205.203125 L 260.503906 205.203125 C 260.453125 205.203125 260.398438 205.160156 260.386719 205.109375 C 260.179688 204.234375 259.609375 203.742188 258.660156 203.742188 C 257.394531 203.742188 256.703125 204.71875 256.703125 206.339844 C 256.703125 207.964844 257.414062 208.898438 258.648438 208.898438 C 259.671875 208.898438 260.222656 208.347656 260.40625 207.355469 C 260.417969 207.308594 260.46875 207.265625 260.523438 207.265625 L 261.917969 207.265625 C 261.964844 207.265625 262.003906 207.308594 261.992188 207.355469 C 261.59375 209.347656 260.398438 210.109375 258.691406 210.109375 Z M 258.699219 210.117188 " fill-opacity="1" fill-rule="nonzero"/><path fill="#006b64" d="M 267.0625 210.117188 C 264.835938 210.117188 263.390625 208.570312 263.390625 206.339844 C 263.390625 204.113281 264.832031 202.523438 267.0625 202.523438 C 269.296875 202.523438 270.75 203.992188 270.75 206.339844 C 270.75 208.570312 269.292969 210.117188 267.0625 210.117188 Z M 267.078125 208.898438 C 268.386719 208.898438 269.113281 207.933594 269.113281 206.339844 C 269.113281 204.75 268.398438 203.742188 267.0625 203.742188 C 265.730469 203.742188 265.027344 204.71875 265.027344 206.339844 C 265.027344 207.964844 265.765625 208.898438 267.078125 208.898438 Z M 267.078125 208.898438 " fill-opacity="1" fill-rule="nonzero"/><path fill="#006b64" d="M 273.753906 206.878906 L 273.753906 209.867188 C 273.753906 209.914062 273.710938 209.957031 273.660156 209.957031 L 272.414062 209.957031 C 272.363281 209.957031 272.320312 209.914062 272.320312 209.867188 L 272.363281 206.316406 L 272.320312 202.765625 C 272.320312 202.71875 272.363281 202.675781 272.414062 202.675781 L 274.335938 202.675781 C 274.382812 202.675781 274.4375 202.71875 274.457031 202.761719 L 276.402344 208.007812 L 278.234375 202.761719 C 278.25 202.71875 278.304688 202.675781 278.355469 202.675781 L 280.15625 202.675781 C 280.203125 202.675781 280.246094 202.71875 280.246094 202.765625 L 280.203125 206.316406 L 280.246094 209.867188 C 280.246094 209.914062 280.203125 209.957031 280.15625 209.957031 L 278.753906 209.957031 C 278.703125 209.957031 278.660156 209.914062 278.660156 209.867188 L 278.660156 206.878906 L 278.710938 205.167969 L 278.722656 204.835938 L 276.941406 209.878906 C 276.921875 209.921875 276.867188 209.964844 276.820312 209.964844 L 275.761719 209.964844 C 275.710938 209.964844 275.65625 209.921875 275.636719 209.878906 L 273.691406 204.632812 L 273.703125 205.183594 Z M 273.753906 206.878906 " fill-opacity="1" fill-rule="nonzero"/><path fill="#006b64" d="M 284.8125 207.429688 L 283.574219 207.429688 L 283.605469 209.867188 C 283.605469 209.914062 283.5625 209.957031 283.515625 209.957031 L 282.074219 209.957031 C 282.027344 209.957031 281.984375 209.914062 281.984375 209.867188 L 282.03125 206.316406 L 281.984375 202.765625 C 281.984375 202.71875 282.027344 202.675781 282.074219 202.675781 L 284.824219 202.675781 C 286.582031 202.675781 287.589844 203.464844 287.589844 205.011719 C 287.589844 206.5625 286.550781 207.425781 284.8125 207.425781 Z M 284.886719 203.832031 L 283.59375 203.832031 L 283.5625 206.273438 L 284.929688 206.273438 C 285.539062 206.273438 286.058594 205.917969 286.058594 205.042969 C 286.058594 204.167969 285.632812 203.824219 284.886719 203.824219 Z M 284.886719 203.832031 " fill-opacity="1" fill-rule="nonzero"/><path fill="#006b64" d="M 292.050781 210.117188 C 290.117188 210.117188 289.09375 209.105469 289.09375 207.257812 L 289.109375 205.28125 L 289.066406 202.773438 C 289.066406 202.722656 289.109375 202.679688 289.15625 202.679688 L 290.625 202.679688 C 290.675781 202.679688 290.71875 202.722656 290.71875 202.773438 L 290.6875 205.238281 L 290.6875 207.246094 C 290.6875 208.289062 291.101562 208.855469 292.050781 208.855469 C 293.074219 208.855469 293.519531 208.28125 293.519531 207.246094 L 293.519531 205.269531 L 293.488281 202.773438 C 293.488281 202.722656 293.53125 202.679688 293.582031 202.679688 L 294.890625 202.679688 C 294.941406 202.679688 294.984375 202.722656 294.984375 202.773438 L 294.953125 205.28125 L 294.953125 207.257812 C 294.953125 209.113281 293.984375 210.117188 292.050781 210.117188 Z M 292.050781 210.117188 " fill-opacity="1" fill-rule="nonzero"/><path fill="#006b64" d="M 298.605469 209.957031 C 298.554688 209.957031 298.515625 209.914062 298.515625 209.867188 L 298.574219 206.316406 L 298.53125 203.851562 L 296.511719 203.851562 C 296.464844 203.851562 296.421875 203.808594 296.421875 203.757812 L 296.421875 202.773438 C 296.421875 202.722656 296.464844 202.679688 296.511719 202.679688 L 302.148438 202.679688 C 302.199219 202.679688 302.242188 202.722656 302.242188 202.773438 L 302.242188 203.757812 C 302.242188 203.808594 302.199219 203.851562 302.148438 203.851562 L 300.140625 203.851562 L 300.097656 206.316406 L 300.160156 209.867188 C 300.160156 209.914062 300.117188 209.957031 300.066406 209.957031 L 298.597656 209.957031 Z M 298.605469 209.957031 " fill-opacity="1" fill-rule="nonzero"/><path fill="#006b64" d="M 303.832031 209.957031 C 303.78125 209.957031 303.738281 209.914062 303.738281 209.867188 L 303.789062 206.316406 L 303.738281 202.765625 C 303.738281 202.71875 303.78125 202.675781 303.832031 202.675781 L 308.738281 202.675781 C 308.789062 202.675781 308.832031 202.71875 308.832031 202.765625 L 308.832031 203.753906 C 308.832031 203.800781 308.789062 203.84375 308.738281 203.84375 L 305.347656 203.84375 L 305.308594 205.519531 L 308.441406 205.519531 C 308.488281 205.519531 308.53125 205.5625 308.53125 205.613281 L 308.53125 206.597656 C 308.53125 206.648438 308.488281 206.691406 308.441406 206.691406 L 305.308594 206.691406 L 305.347656 208.769531 L 308.824219 208.769531 C 308.875 208.769531 308.917969 208.8125 308.917969 208.863281 L 308.917969 209.855469 C 308.917969 209.902344 308.875 209.945312 308.824219 209.945312 L 303.832031 209.945312 Z M 303.832031 209.957031 " fill-opacity="1" fill-rule="nonzero"/><path fill="#006b64" d="M 313.820312 208.335938 L 313.101562 207.253906 L 312.0625 207.253906 L 312.09375 209.867188 C 312.09375 209.914062 312.050781 209.957031 312 209.957031 L 310.574219 209.957031 C 310.527344 209.957031 310.484375 209.914062 310.484375 209.867188 L 310.527344 206.316406 L 310.484375 202.765625 C 310.484375 202.71875 310.527344 202.675781 310.574219 202.675781 L 313.53125 202.675781 C 315.347656 202.675781 316.402344 203.445312 316.402344 204.964844 C 316.402344 206.035156 315.808594 206.777344 314.78125 207.085938 L 316.589844 209.878906 C 316.609375 209.921875 316.589844 209.964844 316.546875 209.964844 L 314.894531 209.964844 C 314.847656 209.964844 314.78125 209.933594 314.75 209.878906 L 313.824219 208.335938 Z M 313.585938 203.832031 L 312.082031 203.832031 L 312.050781 206.101562 L 313.628906 206.101562 C 314.296875 206.101562 314.867188 205.789062 314.867188 205 C 314.867188 204.210938 314.394531 203.839844 313.585938 203.839844 Z M 313.585938 203.832031 " fill-opacity="1" fill-rule="nonzero"/><path fill="#006b64" d="M 177.722656 222.609375 C 175.804688 222.609375 174.496094 221.804688 174.421875 220.082031 C 174.421875 220.03125 174.464844 219.988281 174.515625 219.988281 L 175.984375 219.988281 C 176.03125 219.988281 176.074219 220.03125 176.085938 220.082031 C 176.191406 220.894531 176.558594 221.421875 177.75 221.421875 C 178.699219 221.421875 179.21875 221.140625 179.21875 220.453125 C 179.21875 218.808594 174.570312 220.109375 174.570312 217.214844 C 174.570312 215.851562 175.628906 215 177.496094 215 C 179.203125 215 180.378906 215.65625 180.597656 217.214844 C 180.597656 217.265625 180.566406 217.308594 180.511719 217.308594 L 179.035156 217.308594 C 178.988281 217.308594 178.945312 217.265625 178.933594 217.214844 C 178.847656 216.5625 178.320312 216.195312 177.433594 216.195312 C 176.6875 216.195312 176.140625 216.457031 176.140625 217.058594 C 176.140625 218.605469 180.8125 217.351562 180.8125 220.226562 C 180.8125 221.769531 179.625 222.601562 177.722656 222.601562 Z M 177.722656 222.609375 " fill-opacity="1" fill-rule="nonzero"/><path fill="#006b64" d="M 185.800781 222.601562 C 183.566406 222.601562 182.175781 221.054688 182.175781 218.835938 C 182.175781 216.621094 183.589844 215.007812 185.789062 215.007812 C 187.359375 215.007812 188.625 215.648438 189.042969 217.59375 C 189.054688 217.644531 189.023438 217.6875 188.96875 217.6875 L 187.605469 217.6875 C 187.554688 217.6875 187.5 217.644531 187.488281 217.59375 C 187.28125 216.71875 186.710938 216.226562 185.761719 216.226562 C 184.496094 216.226562 183.804688 217.203125 183.804688 218.824219 C 183.804688 220.449219 184.515625 221.382812 185.75 221.382812 C 186.773438 221.382812 187.324219 220.832031 187.507812 219.839844 C 187.519531 219.792969 187.566406 219.75 187.625 219.75 L 189.019531 219.75 C 189.066406 219.75 189.105469 219.792969 189.09375 219.839844 C 188.695312 221.832031 187.5 222.59375 185.792969 222.59375 Z M 185.800781 222.601562 " fill-opacity="1" fill-rule="nonzero"/><path fill="#006b64" d="M 190.792969 222.441406 C 190.746094 222.441406 190.703125 222.398438 190.703125 222.351562 L 190.75 218.800781 L 190.703125 215.25 C 190.703125 215.195312 190.746094 215.160156 190.792969 215.160156 L 192.207031 215.160156 C 192.253906 215.160156 192.296875 215.203125 192.296875 215.25 L 192.25 218.800781 L 192.296875 222.351562 C 192.296875 222.398438 192.253906 222.441406 192.207031 222.441406 Z M 190.792969 222.441406 " fill-opacity="1" fill-rule="nonzero"/><path fill="#006b64" d="M 194.171875 222.441406 C 194.121094 222.441406 194.078125 222.398438 194.078125 222.351562 L 194.128906 218.800781 L 194.078125 215.25 C 194.078125 215.195312 194.121094 215.160156 194.171875 215.160156 L 199.078125 215.160156 C 199.128906 215.160156 199.171875 215.203125 199.171875 215.25 L 199.171875 216.238281 C 199.171875 216.285156 199.128906 216.328125 199.078125 216.328125 L 195.6875 216.328125 L 195.644531 218.003906 L 198.78125 218.003906 C 198.828125 218.003906 198.871094 218.046875 198.871094 218.097656 L 198.871094 219.082031 C 198.871094 219.132812 198.828125 219.175781 198.78125 219.175781 L 195.644531 219.175781 L 195.6875 221.253906 L 199.164062 221.253906 C 199.214844 221.253906 199.257812 221.296875 199.257812 221.347656 L 199.257812 222.332031 C 199.257812 222.382812 199.214844 222.425781 199.164062 222.425781 L 194.171875 222.425781 Z M 194.171875 222.441406 " fill-opacity="1" fill-rule="nonzero"/><path fill="#006b64" d="M 202.3125 219.230469 L 202.3125 222.351562 C 202.3125 222.398438 202.269531 222.441406 202.21875 222.441406 L 200.921875 222.441406 C 200.871094 222.441406 200.828125 222.398438 200.828125 222.351562 L 200.871094 218.800781 L 200.828125 215.25 C 200.828125 215.195312 200.871094 215.160156 200.921875 215.160156 L 202.660156 215.160156 C 202.707031 215.160156 202.777344 215.191406 202.792969 215.246094 L 205.71875 220.363281 L 205.65625 218.726562 L 205.65625 215.25 C 205.65625 215.195312 205.699219 215.160156 205.75 215.160156 L 207.046875 215.160156 C 207.097656 215.160156 207.140625 215.203125 207.140625 215.25 L 207.097656 218.800781 L 207.140625 222.351562 C 207.140625 222.398438 207.097656 222.441406 207.046875 222.441406 L 205.25 222.441406 C 205.199219 222.441406 205.132812 222.410156 205.113281 222.355469 L 202.253906 217.246094 L 202.269531 217.527344 L 202.316406 219.222656 Z M 202.3125 219.230469 " fill-opacity="1" fill-rule="nonzero"/><path fill="#006b64" d="M 212.328125 222.601562 C 210.09375 222.601562 208.707031 221.054688 208.707031 218.835938 C 208.707031 216.621094 210.121094 215.007812 212.316406 215.007812 C 213.890625 215.007812 215.15625 215.648438 215.570312 217.59375 C 215.585938 217.644531 215.554688 217.6875 215.5 217.6875 L 214.132812 217.6875 C 214.085938 217.6875 214.03125 217.644531 214.019531 217.59375 C 213.808594 216.71875 213.242188 216.226562 212.292969 216.226562 C 211.023438 216.226562 210.332031 217.203125 210.332031 218.824219 C 210.332031 220.449219 211.042969 221.382812 212.28125 221.382812 C 213.300781 221.382812 213.851562 220.832031 214.035156 219.839844 C 214.046875 219.792969 214.097656 219.75 214.152344 219.75 L 215.546875 219.75 C 215.597656 219.75 215.632812 219.792969 215.621094 219.839844 C 215.222656 221.832031 214.03125 222.59375 212.324219 222.59375 Z M 212.328125 222.601562 " fill-opacity="1" fill-rule="nonzero"/><path fill="#006b64" d="M 217.265625 222.441406 C 217.21875 222.441406 217.175781 222.398438 217.175781 222.351562 L 217.222656 218.800781 L 217.175781 215.25 C 217.175781 215.195312 217.21875 215.160156 217.265625 215.160156 L 222.175781 215.160156 C 222.222656 215.160156 222.265625 215.203125 222.265625 215.25 L 222.265625 216.238281 C 222.265625 216.285156 222.222656 216.328125 222.175781 216.328125 L 218.785156 216.328125 L 218.742188 218.003906 L 221.875 218.003906 C 221.925781 218.003906 221.96875 218.046875 221.96875 218.097656 L 221.96875 219.082031 C 221.96875 219.132812 221.925781 219.175781 221.875 219.175781 L 218.742188 219.175781 L 218.785156 221.253906 L 222.261719 221.253906 C 222.308594 221.253906 222.351562 221.296875 222.351562 221.347656 L 222.351562 222.332031 C 222.351562 222.382812 222.308594 222.425781 222.261719 222.425781 L 217.265625 222.425781 Z M 217.265625 222.441406 " fill-opacity="1" fill-rule="nonzero"/><path fill="#006b64" d="M 232.054688 222.441406 C 232.003906 222.441406 231.949219 222.398438 231.929688 222.351562 L 231.367188 220.59375 L 228.644531 220.59375 L 228.105469 222.351562 C 228.085938 222.398438 228.03125 222.441406 227.984375 222.441406 L 226.558594 222.441406 C 226.507812 222.441406 226.472656 222.398438 226.496094 222.351562 L 228.960938 215.257812 C 228.980469 215.203125 229.035156 215.164062 229.085938 215.164062 L 231.03125 215.164062 C 231.078125 215.164062 231.136719 215.207031 231.152344 215.257812 L 233.5625 222.351562 C 233.582031 222.398438 233.550781 222.441406 233.503906 222.441406 Z M 230.96875 219.332031 L 229.972656 216.226562 L 229.023438 219.332031 Z M 230.96875 219.332031 " fill-opacity="1" fill-rule="nonzero"/><path fill="#006b64" d="M 236.398438 219.230469 L 236.398438 222.351562 C 236.398438 222.398438 236.355469 222.441406 236.304688 222.441406 L 235.007812 222.441406 C 234.960938 222.441406 234.917969 222.398438 234.917969 222.351562 L 234.960938 218.800781 L 234.917969 215.25 C 234.917969 215.195312 234.960938 215.160156 235.007812 215.160156 L 236.746094 215.160156 C 236.796875 215.160156 236.863281 215.191406 236.882812 215.246094 L 239.808594 220.363281 L 239.746094 218.726562 L 239.746094 215.25 C 239.746094 215.195312 239.789062 215.160156 239.835938 215.160156 L 241.132812 215.160156 C 241.183594 215.160156 241.226562 215.203125 241.226562 215.25 L 241.183594 218.800781 L 241.226562 222.351562 C 241.226562 222.398438 241.183594 222.441406 241.132812 222.441406 L 239.335938 222.441406 C 239.285156 222.441406 239.21875 222.410156 239.199219 222.355469 L 236.34375 217.246094 L 236.355469 217.527344 L 236.402344 219.222656 Z M 236.398438 219.230469 " fill-opacity="1" fill-rule="nonzero"/><path fill="#006b64" d="M 243.050781 222.441406 C 243 222.441406 242.957031 222.398438 242.957031 222.351562 L 243.007812 218.800781 L 242.957031 215.25 C 242.957031 215.195312 243 215.160156 243.050781 215.160156 L 245.621094 215.160156 C 247.714844 215.160156 249.480469 216.285156 249.480469 218.851562 C 249.480469 221.414062 247.695312 222.4375 245.644531 222.4375 L 243.054688 222.4375 Z M 244.566406 221.265625 L 245.722656 221.265625 C 246.898438 221.265625 247.847656 220.570312 247.847656 218.84375 C 247.847656 217.117188 246.910156 216.335938 245.679688 216.335938 L 244.566406 216.335938 C 244.566406 216.335938 244.523438 217.566406 244.523438 218.769531 C 244.523438 219.976562 244.566406 221.253906 244.566406 221.265625 Z M 244.566406 221.265625 " fill-opacity="1" fill-rule="nonzero"/><path fill="#006b64" d="M 254.199219 222.441406 C 254.152344 222.441406 254.109375 222.398438 254.109375 222.351562 L 254.15625 218.800781 L 254.109375 215.25 C 254.109375 215.195312 254.152344 215.160156 254.199219 215.160156 L 259.109375 215.160156 C 259.15625 215.160156 259.199219 215.203125 259.199219 215.25 L 259.199219 216.238281 C 259.199219 216.285156 259.15625 216.328125 259.109375 216.328125 L 255.71875 216.328125 L 255.675781 218.003906 L 258.808594 218.003906 C 258.859375 218.003906 258.898438 218.046875 258.898438 218.097656 L 258.898438 219.082031 C 258.898438 219.132812 258.859375 219.175781 258.808594 219.175781 L 255.675781 219.175781 L 255.71875 221.253906 L 259.195312 221.253906 C 259.242188 221.253906 259.285156 221.296875 259.285156 221.347656 L 259.285156 222.332031 C 259.285156 222.382812 259.242188 222.425781 259.195312 222.425781 L 254.199219 222.425781 Z M 254.199219 222.441406 " fill-opacity="1" fill-rule="nonzero"/><path fill="#006b64" d="M 262.332031 219.230469 L 262.332031 222.351562 C 262.332031 222.398438 262.289062 222.441406 262.242188 222.441406 L 260.945312 222.441406 C 260.894531 222.441406 260.851562 222.398438 260.851562 222.351562 L 260.894531 218.800781 L 260.851562 215.25 C 260.851562 215.195312 260.894531 215.160156 260.945312 215.160156 L 262.683594 215.160156 C 262.730469 215.160156 262.796875 215.191406 262.816406 215.246094 L 265.742188 220.363281 L 265.679688 218.726562 L 265.679688 215.25 C 265.679688 215.195312 265.722656 215.160156 265.773438 215.160156 L 267.070312 215.160156 C 267.121094 215.160156 267.160156 215.203125 267.160156 215.25 L 267.121094 218.800781 L 267.160156 222.351562 C 267.160156 222.398438 267.121094 222.441406 267.070312 222.441406 L 265.269531 222.441406 C 265.222656 222.441406 265.15625 222.410156 265.136719 222.355469 L 262.277344 217.246094 L 262.289062 217.527344 L 262.339844 219.222656 Z M 262.332031 219.230469 " fill-opacity="1" fill-rule="nonzero"/><path fill="#006b64" d="M 272.359375 222.601562 C 270.203125 222.601562 268.734375 221.058594 268.734375 218.808594 C 268.734375 216.554688 270.191406 215.011719 272.300781 215.011719 C 274.113281 215.011719 275.265625 215.90625 275.648438 217.4375 C 275.664062 217.484375 275.632812 217.527344 275.578125 217.527344 L 274.132812 217.527344 C 274.082031 217.527344 274.027344 217.484375 274.015625 217.4375 C 273.777344 216.632812 273.203125 216.21875 272.308594 216.21875 C 271.042969 216.21875 270.363281 217.214844 270.363281 218.832031 C 270.363281 220.449219 271.074219 221.402344 272.359375 221.402344 C 273.398438 221.402344 274.066406 220.789062 274.109375 219.664062 L 272.296875 219.664062 C 272.246094 219.664062 272.203125 219.621094 272.203125 219.570312 L 272.203125 218.59375 C 272.203125 218.539062 272.246094 218.5 272.296875 218.5 L 275.710938 218.5 C 275.761719 218.5 275.804688 218.542969 275.804688 218.59375 C 275.820312 221.285156 274.597656 222.609375 272.351562 222.609375 Z M 272.359375 222.601562 " fill-opacity="1" fill-rule="nonzero"/><path fill="#006b64" d="M 277.535156 222.441406 C 277.484375 222.441406 277.441406 222.398438 277.441406 222.351562 L 277.492188 218.800781 L 277.441406 215.25 C 277.441406 215.195312 277.484375 215.160156 277.535156 215.160156 L 278.949219 215.160156 C 278.996094 215.160156 279.039062 215.203125 279.039062 215.25 L 278.992188 218.800781 L 279.039062 222.351562 C 279.039062 222.398438 278.996094 222.441406 278.949219 222.441406 Z M 277.535156 222.441406 " fill-opacity="1" fill-rule="nonzero"/><path fill="#006b64" d="M 282.308594 219.230469 L 282.308594 222.351562 C 282.308594 222.398438 282.265625 222.441406 282.214844 222.441406 L 280.917969 222.441406 C 280.871094 222.441406 280.828125 222.398438 280.828125 222.351562 L 280.871094 218.800781 L 280.828125 215.25 C 280.828125 215.195312 280.871094 215.160156 280.917969 215.160156 L 282.65625 215.160156 C 282.707031 215.160156 282.773438 215.191406 282.792969 215.246094 L 285.71875 220.363281 L 285.65625 218.726562 L 285.65625 215.25 C 285.65625 215.195312 285.699219 215.160156 285.746094 215.160156 L 287.046875 215.160156 C 287.09375 215.160156 287.136719 215.203125 287.136719 215.25 L 287.09375 218.800781 L 287.136719 222.351562 C 287.136719 222.398438 287.09375 222.441406 287.046875 222.441406 L 285.246094 222.441406 C 285.195312 222.441406 285.128906 222.410156 285.113281 222.355469 L 282.253906 217.246094 L 282.265625 217.527344 L 282.316406 219.222656 Z M 282.308594 219.230469 " fill-opacity="1" fill-rule="nonzero"/><path fill="#006b64" d="M 288.960938 222.441406 C 288.910156 222.441406 288.867188 222.398438 288.867188 222.351562 L 288.917969 218.800781 L 288.867188 215.25 C 288.867188 215.195312 288.910156 215.160156 288.960938 215.160156 L 293.867188 215.160156 C 293.917969 215.160156 293.960938 215.203125 293.960938 215.25 L 293.960938 216.238281 C 293.960938 216.285156 293.917969 216.328125 293.867188 216.328125 L 290.476562 216.328125 L 290.4375 218.003906 L 293.570312 218.003906 C 293.617188 218.003906 293.660156 218.046875 293.660156 218.097656 L 293.660156 219.082031 C 293.660156 219.132812 293.617188 219.175781 293.570312 219.175781 L 290.4375 219.175781 L 290.476562 221.253906 L 293.953125 221.253906 C 294.003906 221.253906 294.046875 221.296875 294.046875 221.347656 L 294.046875 222.332031 C 294.046875 222.382812 294.003906 222.425781 293.953125 222.425781 L 288.960938 222.425781 Z M 288.960938 222.441406 " fill-opacity="1" fill-rule="nonzero"/><path fill="#006b64" d="M 295.699219 222.441406 C 295.648438 222.441406 295.605469 222.398438 295.605469 222.351562 L 295.65625 218.800781 L 295.605469 215.25 C 295.605469 215.195312 295.648438 215.160156 295.699219 215.160156 L 300.605469 215.160156 C 300.65625 215.160156 300.699219 215.203125 300.699219 215.25 L 300.699219 216.238281 C 300.699219 216.285156 300.65625 216.328125 300.605469 216.328125 L 297.214844 216.328125 L 297.171875 218.003906 L 300.308594 218.003906 C 300.355469 218.003906 300.398438 218.046875 300.398438 218.097656 L 300.398438 219.082031 C 300.398438 219.132812 300.355469 219.175781 300.308594 219.175781 L 297.171875 219.175781 L 297.214844 221.253906 L 300.691406 221.253906 C 300.742188 221.253906 300.785156 221.296875 300.785156 221.347656 L 300.785156 222.332031 C 300.785156 222.382812 300.742188 222.425781 300.691406 222.425781 L 295.699219 222.425781 Z M 295.699219 222.441406 " fill-opacity="1" fill-rule="nonzero"/><path fill="#006b64" d="M 305.6875 220.820312 L 304.96875 219.738281 L 303.929688 219.738281 L 303.960938 222.351562 C 303.960938 222.398438 303.917969 222.441406 303.867188 222.441406 L 302.441406 222.441406 C 302.394531 222.441406 302.351562 222.398438 302.351562 222.351562 L 302.394531 218.800781 L 302.351562 215.25 C 302.351562 215.195312 302.394531 215.160156 302.441406 215.160156 L 305.398438 215.160156 C 307.214844 215.160156 308.269531 215.929688 308.269531 217.449219 C 308.269531 218.519531 307.675781 219.261719 306.648438 219.570312 L 308.457031 222.363281 C 308.476562 222.40625 308.457031 222.449219 308.414062 222.449219 L 306.761719 222.449219 C 306.714844 222.449219 306.648438 222.417969 306.617188 222.363281 L 305.691406 220.820312 Z M 305.460938 216.316406 L 303.953125 216.316406 L 303.921875 218.585938 L 305.503906 218.585938 C 306.167969 218.585938 306.738281 218.273438 306.738281 217.484375 C 306.738281 216.695312 306.265625 216.324219 305.460938 216.324219 Z M 305.460938 216.316406 " fill-opacity="1" fill-rule="nonzero"/><path fill="#006b64" d="M 310.039062 222.441406 C 309.988281 222.441406 309.945312 222.398438 309.945312 222.351562 L 309.996094 218.800781 L 309.945312 215.25 C 309.945312 215.195312 309.988281 215.160156 310.039062 215.160156 L 311.449219 215.160156 C 311.5 215.160156 311.542969 215.203125 311.542969 215.25 L 311.492188 218.800781 L 311.542969 222.351562 C 311.542969 222.398438 311.5 222.441406 311.449219 222.441406 Z M 310.039062 222.441406 " fill-opacity="1" fill-rule="nonzero"/><path fill="#006b64" d="M 314.8125 219.230469 L 314.8125 222.351562 C 314.8125 222.398438 314.769531 222.441406 314.71875 222.441406 L 313.421875 222.441406 C 313.371094 222.441406 313.328125 222.398438 313.328125 222.351562 L 313.371094 218.800781 L 313.328125 215.25 C 313.328125 215.195312 313.371094 215.160156 313.421875 215.160156 L 315.160156 215.160156 C 315.207031 215.160156 315.277344 215.191406 315.292969 215.246094 L 318.21875 220.363281 L 318.160156 218.726562 L 318.160156 215.25 C 318.160156 215.195312 318.199219 215.160156 318.25 215.160156 L 319.546875 215.160156 C 319.597656 215.160156 319.640625 215.203125 319.640625 215.25 L 319.597656 218.800781 L 319.640625 222.351562 C 319.640625 222.398438 319.597656 222.441406 319.546875 222.441406 L 317.75 222.441406 C 317.699219 222.441406 317.632812 222.410156 317.613281 222.355469 L 314.753906 217.246094 L 314.769531 217.527344 L 314.816406 219.222656 Z M 314.8125 219.230469 " fill-opacity="1" fill-rule="nonzero"/><path fill="#006b64" d="M 324.828125 222.601562 C 322.675781 222.601562 321.207031 221.058594 321.207031 218.808594 C 321.207031 216.554688 322.664062 215.011719 324.773438 215.011719 C 326.585938 215.011719 327.734375 215.90625 328.121094 217.4375 C 328.132812 217.484375 328.101562 217.527344 328.046875 217.527344 L 326.605469 217.527344 C 326.554688 217.527344 326.5 217.484375 326.488281 217.4375 C 326.25 216.632812 325.671875 216.21875 324.78125 216.21875 C 323.511719 216.21875 322.832031 217.214844 322.832031 218.832031 C 322.832031 220.449219 323.542969 221.402344 324.828125 221.402344 C 325.871094 221.402344 326.535156 220.789062 326.578125 219.664062 L 324.769531 219.664062 C 324.71875 219.664062 324.675781 219.621094 324.675781 219.570312 L 324.675781 218.59375 C 324.675781 218.539062 324.71875 218.5 324.769531 218.5 L 328.183594 218.5 C 328.230469 218.5 328.273438 218.542969 328.273438 218.59375 C 328.292969 221.285156 327.070312 222.609375 324.824219 222.609375 Z M 324.828125 222.601562 " fill-opacity="1" fill-rule="nonzero"/></svg>