<svg xmlns="http://www.w3.org/2000/svg" xmlns:xlink="http://www.w3.org/1999/xlink" width="2380" zoomAndPan="magnify" viewBox="0 0 1784.88 1784.99993" height="2380" preserveAspectRatio="xMidYMid meet" version="1.0"><defs><clipPath id="8ab0c7f51b"><path d="M 0 0.0585938 L 1784.761719 0.0585938 L 1784.761719 1784.9375 L 0 1784.9375 Z M 0 0.0585938 " clip-rule="nonzero"/></clipPath><clipPath id="286d15eacb"><path d="M 0 0.0585938 L 1784.761719 0.0585938 L 1784.761719 1784.9375 L 0 1784.9375 Z M 0 0.0585938 " clip-rule="nonzero"/></clipPath><clipPath id="842ac8dc8d"><path d="M 1423 833 L 1500.136719 833 L 1500.136719 923 L 1423 923 Z M 1423 833 " clip-rule="nonzero"/></clipPath><clipPath id="f238c3ea4a"><path d="M 284.386719 727 L 633 727 L 633 1047 L 284.386719 1047 Z M 284.386719 727 " clip-rule="nonzero"/></clipPath><clipPath id="0935e7cd3f"><rect x="0" width="1785" y="0" height="1785"/></clipPath></defs><g clip-path="url(#8ab0c7f51b)"><path fill="#ffffff" d="M 0 0.0585938 L 1784.878906 0.0585938 L 1784.878906 1784.941406 L 0 1784.941406 Z M 0 0.0585938 " fill-opacity="1" fill-rule="nonzero"/><g transform="matrix(1, 0, 0, 1, 0, -0.000000000000097387)"><g clip-path="url(#0935e7cd3f)"><g clip-path="url(#286d15eacb)"><path fill="#ffffff" d="M 0 0.0585938 L 1785 0.0585938 L 1785 1785.058594 L 0 1785.058594 Z M 0 0.0585938 " fill-opacity="1" fill-rule="nonzero"/></g><path fill="#a7a9ac" d="M 649.140625 1078.515625 L 648.394531 1078.515625 C 647.925781 1078.414062 647.496094 1078.226562 647.101562 1077.957031 C 646.710938 1077.683594 646.382812 1077.34375 646.125 1076.941406 C 645.863281 1076.539062 645.691406 1076.105469 645.605469 1075.632812 C 645.523438 1075.164062 645.53125 1074.695312 645.632812 1074.226562 L 723.203125 709.308594 C 723.296875 708.839844 723.476562 708.40625 723.746094 708.007812 C 724.011719 707.613281 724.347656 707.28125 724.746094 707.019531 C 725.148438 706.757812 725.582031 706.582031 726.054688 706.492188 C 726.523438 706.40625 726.992188 706.414062 727.460938 706.511719 C 727.929688 706.613281 728.359375 706.800781 728.753906 707.074219 C 729.148438 707.34375 729.476562 707.683594 729.738281 708.082031 C 730 708.484375 730.175781 708.921875 730.265625 709.390625 C 730.355469 709.863281 730.351562 710.332031 730.253906 710.800781 L 652.390625 1075.785156 C 652.300781 1076.15625 652.152344 1076.503906 651.949219 1076.824219 C 651.75 1077.148438 651.5 1077.433594 651.210938 1077.679688 C 650.917969 1077.925781 650.59375 1078.117188 650.242188 1078.261719 C 649.886719 1078.40625 649.519531 1078.488281 649.140625 1078.515625 Z M 649.140625 1078.515625 " fill-opacity="1" fill-rule="nonzero"/><path fill="#000000" d="M 814.554688 799.847656 C 805.8125 799.847656 803.570312 799.847656 794.4375 800.140625 L 794.082031 799.554688 C 794.082031 791.265625 794.082031 783.046875 794.277344 774.824219 C 794.277344 769.558594 794.4375 764.328125 794.4375 759.0625 C 794.4375 750.9375 794.277344 744.925781 793.886719 735.046875 L 794.339844 734.589844 C 803.410156 734.589844 805.324219 734.589844 814.394531 734.332031 L 814.75 734.785156 C 814.488281 744.015625 814.296875 749.539062 814.296875 760.167969 C 814.296875 773.167969 814.554688 786.359375 814.945312 799.164062 Z M 814.554688 799.847656 " fill-opacity="1" fill-rule="nonzero"/><path fill="#000000" d="M 848.515625 772.90625 L 848.515625 785.644531 C 855.730469 785.644531 862.457031 785.449219 871.945312 785.09375 L 872.5 785.644531 L 871.589844 799.292969 L 870.742188 799.847656 C 858.101562 799.847656 855.988281 799.847656 853.226562 799.847656 C 843.089844 799.847656 837.824219 800.042969 829.050781 800.238281 L 828.59375 799.585938 C 828.855469 788.960938 828.953125 783.335938 828.953125 770.695312 C 828.953125 748.53125 828.757812 744.699219 828.300781 735.339844 L 828.855469 734.785156 L 870.386719 734.785156 L 870.839844 735.144531 L 870.125 747.785156 L 869.542969 748.238281 L 848.222656 748.238281 L 848.222656 759.972656 L 868.4375 759.613281 L 868.988281 760.265625 L 868.273438 772.355469 L 867.625 772.90625 Z M 848.515625 772.90625 " fill-opacity="1" fill-rule="nonzero"/><path fill="#000000" d="M 902.300781 772.90625 L 902.300781 785.644531 C 909.515625 785.644531 916.242188 785.449219 925.730469 785.09375 L 926.316406 785.644531 L 925.371094 799.292969 L 924.558594 799.847656 C 911.886719 799.847656 909.773438 799.847656 907.011719 799.847656 C 896.871094 799.847656 891.605469 800.042969 882.832031 800.238281 L 882.378906 799.585938 C 882.636719 788.960938 882.734375 783.335938 882.734375 770.695312 C 882.734375 748.53125 882.539062 744.699219 882.085938 735.339844 L 882.636719 734.785156 L 924.171875 734.785156 L 924.625 735.144531 L 924.007812 747.882812 L 923.457031 748.335938 L 902.105469 748.335938 L 902.105469 760.070312 L 922.316406 759.710938 L 922.871094 760.363281 L 922.121094 772.355469 L 921.472656 772.90625 Z M 902.300781 772.90625 " fill-opacity="1" fill-rule="nonzero"/><path fill="#000000" d="M 956.082031 772.90625 L 956.082031 785.644531 C 963.296875 785.644531 970.023438 785.449219 979.546875 785.09375 L 980.097656 785.644531 L 979.15625 799.292969 L 978.34375 799.847656 C 965.703125 799.847656 963.558594 799.847656 960.796875 799.847656 C 950.65625 799.847656 945.390625 800.042969 936.617188 800.238281 L 936.160156 799.585938 C 936.421875 788.960938 936.519531 783.335938 936.519531 770.695312 C 936.519531 748.53125 936.324219 744.699219 935.871094 735.339844 L 936.421875 734.785156 L 977.953125 734.785156 L 978.441406 735.144531 L 977.792969 747.882812 L 977.238281 748.335938 L 955.886719 748.335938 L 955.886719 760.070312 L 976.132812 759.710938 L 976.652344 760.363281 L 975.9375 772.449219 L 975.289062 773.003906 Z M 956.082031 772.90625 " fill-opacity="1" fill-rule="nonzero"/><path fill="#000000" d="M 817.578125 852.722656 C 813.722656 850.636719 809.609375 849.554688 805.226562 849.472656 C 804.035156 849.460938 802.847656 849.53125 801.667969 849.679688 C 800.484375 849.828125 799.316406 850.054688 798.164062 850.363281 C 797.015625 850.667969 795.886719 851.050781 794.789062 851.507812 C 793.6875 851.964844 792.621094 852.492188 791.59375 853.09375 C 790.5625 853.695312 789.578125 854.363281 788.640625 855.09375 C 787.699219 855.828125 786.8125 856.621094 785.980469 857.472656 C 785.148438 858.324219 784.375 859.230469 783.664062 860.1875 C 782.953125 861.144531 782.308594 862.140625 781.730469 863.183594 C 780.519531 865.382812 779.613281 867.699219 779.015625 870.132812 C 778.414062 872.570312 778.136719 875.039062 778.191406 877.550781 C 778.167969 880.019531 778.453125 882.449219 779.054688 884.84375 C 779.65625 887.238281 780.546875 889.519531 781.730469 891.6875 C 782.875 893.785156 784.269531 895.699219 785.925781 897.425781 C 787.578125 899.152344 789.429688 900.628906 791.480469 901.859375 C 793.550781 903.066406 795.742188 903.972656 798.0625 904.578125 C 800.378906 905.1875 802.734375 905.46875 805.128906 905.433594 C 809.371094 905.367188 813.402344 904.414062 817.21875 902.574219 C 821.332031 900.664062 824.996094 898.105469 828.203125 894.902344 L 840 907.707031 C 835.199219 912.675781 829.640625 916.5625 823.328125 919.375 C 821.636719 920.152344 819.90625 920.824219 818.136719 921.398438 C 816.363281 921.972656 814.566406 922.4375 812.738281 922.800781 C 810.914062 923.160156 809.070312 923.414062 807.214844 923.558594 C 805.359375 923.703125 803.503906 923.738281 801.640625 923.664062 C 799.78125 923.585938 797.933594 923.40625 796.09375 923.113281 C 794.253906 922.820312 792.441406 922.421875 790.648438 921.914062 C 788.859375 921.40625 787.101562 920.796875 785.382812 920.085938 C 783.664062 919.371094 781.992188 918.5625 780.367188 917.652344 C 776.878906 915.707031 773.714844 913.328125 770.871094 910.519531 C 768.03125 907.710938 765.617188 904.574219 763.632812 901.109375 C 761.597656 897.523438 760.070312 893.730469 759.058594 889.730469 C 758.042969 885.734375 757.574219 881.671875 757.652344 877.550781 C 757.625 875.535156 757.734375 873.527344 757.984375 871.53125 C 758.230469 869.53125 758.613281 867.558594 759.128906 865.613281 C 759.644531 863.664062 760.289062 861.761719 761.066406 859.902344 C 761.84375 858.042969 762.742188 856.246094 763.761719 854.511719 C 764.78125 852.773438 765.914062 851.113281 767.164062 849.535156 C 768.410156 847.953125 769.757812 846.460938 771.207031 845.0625 C 772.65625 843.664062 774.195312 842.371094 775.820312 841.183594 C 777.449219 839.996094 779.148438 838.921875 780.917969 837.964844 C 782.558594 837.085938 784.238281 836.296875 785.964844 835.605469 C 787.6875 834.910156 789.449219 834.316406 791.238281 833.820312 C 793.03125 833.324219 794.847656 832.929688 796.683594 832.636719 C 798.519531 832.34375 800.367188 832.15625 802.222656 832.070312 C 804.082031 831.984375 805.9375 832.003906 807.792969 832.125 C 809.648438 832.25 811.492188 832.472656 813.320312 832.804688 C 815.152344 833.132812 816.957031 833.5625 818.738281 834.09375 C 820.523438 834.628906 822.269531 835.257812 823.980469 835.984375 C 830.042969 838.519531 835.375 842.136719 839.96875 846.839844 L 828.300781 861.300781 C 825.320312 857.699219 821.742188 854.839844 817.578125 852.722656 Z M 817.578125 852.722656 " fill-opacity="1" fill-rule="nonzero"/><path fill="#000000" d="M 917.214844 838.0625 C 918.984375 839.042969 920.679688 840.136719 922.300781 841.34375 C 923.921875 842.546875 925.457031 843.855469 926.90625 845.265625 C 928.355469 846.675781 929.703125 848.179688 930.949219 849.769531 C 932.199219 851.359375 933.335938 853.023438 934.359375 854.765625 C 935.386719 856.507812 936.292969 858.308594 937.078125 860.171875 C 937.863281 862.035156 938.523438 863.941406 939.054688 865.890625 C 939.585938 867.839844 939.988281 869.816406 940.253906 871.820312 C 940.523438 873.824219 940.65625 875.835938 940.65625 877.859375 C 940.65625 879.878906 940.523438 881.890625 940.253906 883.894531 C 939.988281 885.898438 939.585938 887.875 939.054688 889.824219 C 938.523438 891.777344 937.863281 893.683594 937.078125 895.542969 C 936.292969 897.40625 935.386719 899.207031 934.359375 900.949219 C 933.335938 902.691406 932.199219 904.359375 930.949219 905.949219 C 929.703125 907.539062 928.355469 909.039062 926.90625 910.449219 C 925.457031 911.859375 923.921875 913.167969 922.300781 914.371094 C 920.679688 915.578125 918.984375 916.671875 917.214844 917.652344 C 915.359375 918.640625 913.445312 919.511719 911.484375 920.265625 C 909.519531 921.019531 907.515625 921.652344 905.472656 922.160156 C 903.433594 922.671875 901.367188 923.054688 899.277344 923.3125 C 897.1875 923.566406 895.09375 923.695312 892.988281 923.695312 C 890.882812 923.695312 888.789062 923.566406 886.699219 923.3125 C 884.609375 923.054688 882.546875 922.671875 880.503906 922.160156 C 878.460938 921.652344 876.457031 921.019531 874.496094 920.265625 C 872.53125 919.511719 870.621094 918.640625 868.761719 917.652344 C 866.976562 916.6875 865.261719 915.609375 863.621094 914.414062 C 861.984375 913.214844 860.433594 911.914062 858.96875 910.503906 C 857.507812 909.097656 856.148438 907.597656 854.890625 906.003906 C 853.636719 904.410156 852.492188 902.738281 851.460938 900.988281 C 850.433594 899.242188 849.527344 897.429688 848.746094 895.558594 C 847.960938 893.683594 847.3125 891.765625 846.789062 889.804688 C 846.269531 887.84375 845.882812 885.855469 845.632812 883.84375 C 845.382812 881.828125 845.273438 879.804688 845.296875 877.777344 C 845.246094 873.683594 845.753906 869.660156 846.816406 865.707031 C 847.882812 861.753906 849.46875 858.019531 851.570312 854.507812 C 853.632812 851.046875 856.117188 847.921875 859.023438 845.128906 C 861.929688 842.339844 865.152344 839.984375 868.695312 838.0625 C 870.5625 837.089844 872.480469 836.234375 874.449219 835.492188 C 876.417969 834.75 878.421875 834.125 880.46875 833.625 C 882.511719 833.125 884.578125 832.746094 886.667969 832.496094 C 888.753906 832.242188 890.851562 832.117188 892.957031 832.117188 C 895.058594 832.117188 897.15625 832.242188 899.246094 832.496094 C 901.335938 832.746094 903.402344 833.125 905.445312 833.625 C 907.488281 834.125 909.496094 834.75 911.464844 835.492188 C 913.433594 836.234375 915.351562 837.089844 917.214844 838.0625 Z M 879.550781 853.339844 C 877.457031 854.570312 875.554688 856.058594 873.851562 857.792969 C 872.148438 859.527344 870.703125 861.457031 869.507812 863.574219 C 869.050781 864.378906 868.632812 865.203125 868.253906 866.046875 C 867.875 866.890625 867.539062 867.753906 867.246094 868.628906 C 866.949219 869.507812 866.699219 870.394531 866.488281 871.296875 C 866.28125 872.199219 866.113281 873.109375 865.992188 874.027344 C 865.871094 874.941406 865.796875 875.863281 865.761719 876.789062 C 865.730469 877.714844 865.742188 878.636719 865.800781 879.5625 C 865.855469 880.484375 865.957031 881.402344 866.105469 882.316406 C 866.25 883.230469 866.441406 884.136719 866.671875 885.03125 C 866.90625 885.925781 867.183594 886.808594 867.5 887.675781 C 867.820312 888.546875 868.179688 889.398438 868.578125 890.230469 C 868.980469 891.066406 869.421875 891.878906 869.898438 892.671875 C 870.378906 893.460938 870.894531 894.226562 871.449219 894.96875 C 872 895.710938 872.589844 896.425781 873.210938 897.109375 C 873.835938 897.792969 874.488281 898.449219 875.171875 899.070312 C 875.859375 899.691406 876.574219 900.277344 877.316406 900.832031 C 878.058594 901.382812 878.824219 901.898438 879.617188 902.378906 C 881.664062 903.632812 883.84375 904.582031 886.160156 905.230469 C 888.472656 905.875 890.832031 906.191406 893.230469 906.179688 C 895.617188 906.203125 897.957031 905.894531 900.253906 905.261719 C 902.550781 904.625 904.71875 903.6875 906.75 902.441406 C 908.796875 901.183594 910.644531 899.6875 912.296875 897.945312 C 913.949219 896.203125 915.351562 894.28125 916.5 892.171875 C 917.710938 889.96875 918.621094 887.648438 919.234375 885.207031 C 919.84375 882.769531 920.136719 880.292969 920.109375 877.777344 C 920.132812 875.292969 919.84375 872.847656 919.230469 870.441406 C 918.617188 868.035156 917.710938 865.746094 916.5 863.574219 C 915.347656 861.476562 913.941406 859.558594 912.289062 857.824219 C 910.636719 856.089844 908.792969 854.59375 906.75 853.339844 C 904.714844 852.101562 902.546875 851.164062 900.25 850.53125 C 897.953125 849.894531 895.613281 849.585938 893.230469 849.601562 C 890.824219 849.59375 888.460938 849.910156 886.136719 850.542969 C 883.816406 851.175781 881.621094 852.109375 879.550781 853.339844 Z M 879.550781 853.339844 " fill-opacity="1" fill-rule="nonzero"/><path fill="#000000" d="M 955.140625 833.515625 L 977.371094 833.515625 L 1005.023438 888.046875 L 1032.617188 833.515625 L 1054.84375 833.515625 L 1054.84375 922.296875 L 1036.808594 922.296875 L 1036.808594 862.308594 L 1011.460938 913.296875 L 998.460938 913.296875 L 973.113281 862.308594 L 973.113281 922.296875 L 955.074219 922.296875 Z M 955.140625 833.515625 " fill-opacity="1" fill-rule="nonzero"/><path fill="#000000" d="M 1139.597656 841.542969 C 1141.167969 842.972656 1142.558594 844.5625 1143.773438 846.304688 C 1144.988281 848.046875 1145.996094 849.902344 1146.796875 851.871094 C 1147.597656 853.839844 1148.171875 855.871094 1148.519531 857.964844 C 1148.867188 860.0625 1148.980469 862.167969 1148.859375 864.289062 C 1148.988281 866.511719 1148.878906 868.71875 1148.535156 870.917969 C 1148.1875 873.117188 1147.613281 875.253906 1146.808594 877.328125 C 1146.003906 879.402344 1144.988281 881.367188 1143.761719 883.222656 C 1142.535156 885.078125 1141.125 886.785156 1139.535156 888.339844 C 1133.359375 894.058594 1124.585938 897.046875 1113.339844 897.046875 L 1095.695312 897.046875 L 1095.695312 922.429688 L 1075.644531 922.429688 L 1075.644531 833.515625 L 1113.339844 833.515625 C 1124.648438 833.515625 1133.359375 836.179688 1139.597656 841.542969 Z M 1125.332031 876.3125 C 1126.105469 875.59375 1126.789062 874.800781 1127.382812 873.929688 C 1127.976562 873.058594 1128.46875 872.132812 1128.855469 871.152344 C 1129.246094 870.167969 1129.519531 869.15625 1129.683594 868.113281 C 1129.84375 867.074219 1129.886719 866.023438 1129.816406 864.972656 C 1129.890625 863.9375 1129.84375 862.90625 1129.683594 861.878906 C 1129.519531 860.855469 1129.246094 859.859375 1128.855469 858.898438 C 1128.46875 857.933594 1127.976562 857.027344 1127.378906 856.175781 C 1126.785156 855.328125 1126.101562 854.554688 1125.332031 853.859375 C 1123.449219 852.492188 1121.394531 851.492188 1119.160156 850.847656 C 1116.925781 850.207031 1114.652344 849.964844 1112.332031 850.121094 L 1095.695312 850.121094 L 1095.695312 880.179688 L 1112.332031 880.179688 C 1114.660156 880.335938 1116.941406 880.078125 1119.179688 879.414062 C 1121.414062 878.75 1123.464844 877.714844 1125.332031 876.3125 Z M 1125.332031 876.3125 " fill-opacity="1" fill-rule="nonzero"/><path fill="#000000" d="M 1186.851562 900.65625 C 1187.792969 901.589844 1188.820312 902.417969 1189.933594 903.140625 C 1191.046875 903.863281 1192.226562 904.460938 1193.464844 904.9375 C 1194.703125 905.414062 1195.980469 905.753906 1197.292969 905.964844 C 1198.601562 906.171875 1199.921875 906.246094 1201.246094 906.179688 C 1202.535156 906.238281 1203.816406 906.164062 1205.089844 905.953125 C 1206.359375 905.742188 1207.597656 905.402344 1208.796875 904.933594 C 1210 904.460938 1211.136719 903.871094 1212.214844 903.164062 C 1213.292969 902.453125 1214.28125 901.636719 1215.1875 900.71875 C 1216.09375 899.695312 1216.890625 898.589844 1217.582031 897.410156 C 1218.269531 896.226562 1218.835938 894.988281 1219.285156 893.695312 C 1219.730469 892.402344 1220.046875 891.078125 1220.230469 889.722656 C 1220.417969 888.367188 1220.46875 887.007812 1220.386719 885.640625 L 1220.386719 833.644531 L 1240.601562 833.644531 L 1240.601562 885.640625 C 1240.6875 889.15625 1240.332031 892.628906 1239.527344 896.050781 C 1238.722656 899.476562 1237.5 902.746094 1235.855469 905.855469 C 1234.289062 908.683594 1232.34375 911.222656 1230.015625 913.46875 C 1227.691406 915.71875 1225.089844 917.578125 1222.207031 919.046875 C 1218.960938 920.660156 1215.566406 921.859375 1212.027344 922.644531 C 1208.488281 923.433594 1204.902344 923.78125 1201.277344 923.695312 C 1197.632812 923.777344 1194.03125 923.425781 1190.46875 922.636719 C 1186.910156 921.851562 1183.492188 920.65625 1180.21875 919.046875 C 1177.304688 917.597656 1174.671875 915.746094 1172.316406 913.496094 C 1169.960938 911.246094 1167.992188 908.699219 1166.410156 905.855469 C 1164.734375 902.753906 1163.488281 899.492188 1162.667969 896.0625 C 1161.847656 892.636719 1161.480469 889.164062 1161.566406 885.640625 L 1161.566406 833.644531 L 1181.617188 833.644531 L 1181.617188 885.640625 C 1181.53125 887.003906 1181.582031 888.359375 1181.765625 889.714844 C 1181.949219 891.066406 1182.269531 892.386719 1182.71875 893.675781 C 1183.167969 894.964844 1183.738281 896.199219 1184.433594 897.371094 C 1185.128906 898.546875 1185.933594 899.640625 1186.851562 900.65625 Z M 1186.851562 900.65625 " fill-opacity="1" fill-rule="nonzero"/><path fill="#000000" d="M 1250.96875 833.515625 L 1325.097656 833.515625 L 1325.097656 850.511719 L 1297.960938 850.511719 L 1297.960938 922.296875 L 1277.972656 922.296875 L 1277.972656 850.511719 L 1250.96875 850.511719 Z M 1250.96875 833.515625 " fill-opacity="1" fill-rule="nonzero"/><path fill="#000000" d="M 1337.21875 833.515625 L 1404.847656 833.515625 L 1404.847656 850.121094 L 1357.269531 850.121094 L 1357.269531 869.390625 L 1400.003906 869.390625 L 1400.003906 886 L 1357.269531 886 L 1357.269531 905.691406 L 1406.339844 905.691406 L 1406.339844 922.296875 L 1337.21875 922.296875 Z M 1337.21875 833.515625 " fill-opacity="1" fill-rule="nonzero"/><g clip-path="url(#842ac8dc8d)"><path fill="#000000" d="M 1477.835938 922.296875 L 1463.699219 897.046875 L 1443.257812 897.046875 L 1443.257812 922.429688 L 1423.238281 922.429688 L 1423.238281 833.515625 L 1461.78125 833.515625 C 1473.371094 833.515625 1482.34375 836.191406 1488.691406 841.542969 C 1490.292969 842.953125 1491.714844 844.527344 1492.957031 846.265625 C 1494.203125 848 1495.238281 849.851562 1496.0625 851.824219 C 1496.886719 853.792969 1497.480469 855.832031 1497.84375 857.933594 C 1498.207031 860.039062 1498.328125 862.15625 1498.210938 864.289062 C 1498.320312 867.355469 1498.023438 870.382812 1497.324219 873.371094 C 1496.625 876.359375 1495.546875 879.203125 1494.085938 881.902344 C 1492.648438 884.347656 1490.871094 886.519531 1488.757812 888.410156 C 1486.644531 890.300781 1484.292969 891.828125 1481.703125 892.984375 L 1500.617188 922.234375 Z M 1443.324219 880.050781 L 1461.847656 880.050781 C 1464.175781 880.21875 1466.460938 879.96875 1468.699219 879.304688 C 1470.9375 878.636719 1472.988281 877.597656 1474.847656 876.183594 C 1475.625 875.46875 1476.3125 874.675781 1476.914062 873.804688 C 1477.511719 872.9375 1478.007812 872.011719 1478.398438 871.027344 C 1478.789062 870.046875 1479.066406 869.035156 1479.230469 867.988281 C 1479.390625 866.945312 1479.4375 865.898438 1479.363281 864.84375 C 1479.410156 863.804688 1479.339844 862.777344 1479.152344 861.753906 C 1478.964844 860.734375 1478.664062 859.746094 1478.25 858.796875 C 1477.835938 857.84375 1477.320312 856.949219 1476.703125 856.117188 C 1476.082031 855.28125 1475.378906 854.53125 1474.585938 853.859375 C 1472.710938 852.480469 1470.65625 851.46875 1468.421875 850.828125 C 1466.183594 850.183594 1463.90625 849.949219 1461.585938 850.121094 L 1443.0625 850.121094 Z M 1443.324219 880.050781 " fill-opacity="1" fill-rule="nonzero"/></g><path fill="#000000" d="M 776.988281 978.292969 C 772.78125 976.808594 768.445312 975.984375 763.988281 975.824219 C 761.0625 975.6875 758.3125 976.316406 755.734375 977.707031 C 755.253906 977.992188 754.820312 978.339844 754.433594 978.742188 C 754.046875 979.144531 753.71875 979.59375 753.453125 980.085938 C 753.1875 980.578125 752.992188 981.097656 752.867188 981.640625 C 752.738281 982.1875 752.6875 982.738281 752.710938 983.296875 C 752.695312 984.039062 752.78125 984.773438 752.972656 985.492188 C 753.164062 986.210938 753.453125 986.886719 753.839844 987.523438 C 754.226562 988.160156 754.691406 988.730469 755.242188 989.234375 C 755.789062 989.734375 756.398438 990.152344 757.066406 990.480469 C 761.390625 992.671875 765.898438 994.382812 770.585938 995.613281 C 775.722656 997.082031 780.738281 998.890625 785.632812 1001.039062 C 789.664062 1002.859375 793.019531 1005.523438 795.707031 1009.035156 C 797.1875 1011.074219 798.289062 1013.296875 799.007812 1015.710938 C 799.726562 1018.125 800.023438 1020.589844 799.898438 1023.105469 C 799.957031 1025.730469 799.601562 1028.292969 798.828125 1030.800781 C 798.058594 1033.308594 796.90625 1035.628906 795.382812 1037.761719 C 793.804688 1039.875 791.964844 1041.726562 789.855469 1043.3125 C 787.75 1044.898438 785.464844 1046.15625 783 1047.089844 C 777.253906 1049.335938 771.296875 1050.421875 765.125 1050.339844 C 757.835938 1050.332031 750.773438 1049.0625 743.9375 1046.539062 C 737.296875 1044.175781 731.296875 1040.710938 725.933594 1036.136719 L 733.929688 1019.890625 C 738.53125 1024.015625 743.6875 1027.265625 749.398438 1029.640625 C 754.480469 1031.9375 759.808594 1033.164062 765.386719 1033.3125 C 767.085938 1033.410156 768.765625 1033.265625 770.425781 1032.878906 C 772.082031 1032.492188 773.652344 1031.878906 775.136719 1031.035156 C 775.683594 1030.695312 776.179688 1030.285156 776.621094 1029.8125 C 777.0625 1029.339844 777.433594 1028.820312 777.738281 1028.25 C 778.042969 1027.679688 778.269531 1027.078125 778.417969 1026.449219 C 778.566406 1025.820312 778.632812 1025.183594 778.613281 1024.535156 C 778.640625 1023.472656 778.453125 1022.445312 778.042969 1021.460938 C 777.636719 1020.476562 777.046875 1019.617188 776.273438 1018.882812 C 774.511719 1017.296875 772.515625 1016.09375 770.292969 1015.273438 C 767.886719 1014.363281 764.574219 1013.292969 760.347656 1012.023438 C 755.253906 1010.6875 750.28125 1008.984375 745.433594 1006.921875 C 741.480469 1005.167969 738.164062 1002.589844 735.488281 999.1875 C 734.007812 997.199219 732.90625 995.019531 732.183594 992.648438 C 731.464844 990.277344 731.167969 987.851562 731.296875 985.375 C 731.242188 982.871094 731.585938 980.417969 732.324219 978.023438 C 733.0625 975.628906 734.160156 973.410156 735.617188 971.371094 C 737.140625 969.285156 738.925781 967.457031 740.96875 965.882812 C 743.015625 964.308594 745.238281 963.050781 747.640625 962.109375 C 753.433594 959.808594 759.445312 958.726562 765.679688 958.859375 C 771.8125 958.855469 777.8125 959.742188 783.683594 961.523438 C 789.199219 963.132812 794.390625 965.472656 799.25 968.542969 L 791.515625 985.148438 C 786.941406 982.289062 782.101562 980.003906 776.988281 978.292969 Z M 776.988281 978.292969 " fill-opacity="1" fill-rule="nonzero"/><path fill="#000000" d="M 880.6875 964.902344 C 882.457031 965.882812 884.15625 966.976562 885.78125 968.179688 C 887.402344 969.386719 888.941406 970.695312 890.390625 972.105469 C 891.839844 973.515625 893.191406 975.015625 894.4375 976.605469 C 895.6875 978.199219 896.828125 979.863281 897.855469 981.605469 C 898.882812 983.347656 899.789062 985.152344 900.574219 987.015625 C 901.363281 988.878906 902.023438 990.785156 902.554688 992.738281 C 903.085938 994.6875 903.488281 996.667969 903.757812 998.671875 C 904.023438 1000.675781 904.160156 1002.691406 904.160156 1004.714844 C 904.160156 1006.734375 904.023438 1008.75 903.757812 1010.753906 C 903.488281 1012.757812 903.085938 1014.738281 902.554688 1016.6875 C 902.023438 1018.640625 901.363281 1020.546875 900.574219 1022.410156 C 899.789062 1024.273438 898.882812 1026.078125 897.855469 1027.820312 C 896.828125 1029.5625 895.6875 1031.230469 894.4375 1032.820312 C 893.191406 1034.410156 891.839844 1035.910156 890.390625 1037.320312 C 888.941406 1038.730469 887.402344 1040.039062 885.78125 1041.246094 C 884.15625 1042.453125 882.457031 1043.542969 880.6875 1044.523438 C 878.828125 1045.507812 876.917969 1046.371094 874.953125 1047.121094 C 872.988281 1047.875 870.984375 1048.5 868.941406 1049.007812 C 866.898438 1049.515625 864.835938 1049.894531 862.746094 1050.152344 C 860.660156 1050.40625 858.5625 1050.535156 856.460938 1050.535156 C 854.359375 1050.535156 852.261719 1050.40625 850.175781 1050.152344 C 848.085938 1049.894531 846.023438 1049.515625 843.980469 1049.007812 C 841.9375 1048.5 839.933594 1047.875 837.96875 1047.121094 C 836.003906 1046.371094 834.09375 1045.507812 832.234375 1044.523438 C 828.679688 1042.589844 825.445312 1040.226562 822.527344 1037.421875 C 819.613281 1034.621094 817.117188 1031.484375 815.042969 1028.015625 C 814.257812 1026.707031 813.542969 1025.367188 812.894531 1023.988281 C 812.246094 1022.609375 811.667969 1021.203125 811.160156 1019.765625 C 810.65625 1018.332031 810.222656 1016.871094 809.859375 1015.394531 C 809.5 1013.914062 809.21875 1012.417969 809.007812 1010.910156 C 808.796875 1009.402344 808.664062 1007.886719 808.609375 1006.363281 C 808.554688 1004.84375 808.574219 1003.320312 808.667969 1001.800781 C 808.765625 1000.28125 808.9375 998.769531 809.1875 997.269531 C 809.4375 995.765625 809.761719 994.28125 810.160156 992.808594 C 810.558594 991.339844 811.03125 989.894531 811.574219 988.472656 C 812.121094 987.050781 812.734375 985.660156 813.417969 984.296875 C 814.105469 982.9375 814.855469 981.613281 815.675781 980.332031 C 816.492188 979.046875 817.371094 977.804688 818.316406 976.609375 C 819.257812 975.414062 820.261719 974.269531 821.320312 973.171875 C 822.375 972.078125 823.488281 971.039062 824.652344 970.058594 C 825.8125 969.074219 827.023438 968.152344 828.28125 967.289062 C 829.535156 966.429688 830.832031 965.632812 832.167969 964.902344 C 834.035156 963.929688 835.953125 963.070312 837.921875 962.328125 C 839.890625 961.585938 841.894531 960.964844 843.941406 960.464844 C 845.984375 959.964844 848.050781 959.585938 850.136719 959.335938 C 852.226562 959.082031 854.324219 958.957031 856.429688 958.957031 C 858.53125 958.957031 860.628906 959.082031 862.71875 959.335938 C 864.808594 959.585938 866.875 959.964844 868.917969 960.464844 C 870.960938 960.964844 872.96875 961.585938 874.9375 962.328125 C 876.90625 963.070312 878.824219 963.929688 880.6875 964.902344 Z M 843.023438 980.210938 C 840.929688 981.4375 839.03125 982.917969 837.328125 984.648438 C 835.625 986.378906 834.175781 988.300781 832.980469 990.414062 C 831.757812 992.578125 830.835938 994.867188 830.210938 997.273438 C 829.589844 999.679688 829.289062 1002.128906 829.308594 1004.617188 C 829.277344 1007.128906 829.578125 1009.601562 830.210938 1012.03125 C 830.847656 1014.464844 831.792969 1016.769531 833.046875 1018.945312 C 834.253906 1021.058594 835.707031 1022.988281 837.40625 1024.726562 C 839.109375 1026.464844 841.003906 1027.960938 843.089844 1029.214844 C 845.132812 1030.480469 847.3125 1031.4375 849.628906 1032.085938 C 851.941406 1032.738281 854.300781 1033.0625 856.703125 1033.050781 C 859.089844 1033.066406 861.429688 1032.757812 863.730469 1032.117188 C 866.027344 1031.476562 868.191406 1030.53125 870.222656 1029.28125 C 872.277344 1028.035156 874.128906 1026.539062 875.785156 1024.796875 C 877.4375 1023.054688 878.835938 1021.128906 879.972656 1019.011719 C 881.195312 1016.8125 882.117188 1014.492188 882.734375 1012.050781 C 883.351562 1009.609375 883.644531 1007.132812 883.613281 1004.617188 C 883.625 1002.125 883.3125 999.675781 882.679688 997.269531 C 882.046875 994.859375 881.113281 992.574219 879.875 990.414062 C 878.726562 988.316406 877.328125 986.398438 875.671875 984.667969 C 874.019531 982.9375 872.171875 981.453125 870.125 980.210938 C 868.09375 978.964844 865.925781 978.027344 863.628906 977.390625 C 861.332031 976.757812 858.992188 976.449219 856.605469 976.472656 C 854.214844 976.464844 851.867188 976.78125 849.5625 977.414062 C 847.253906 978.050781 845.074219 978.980469 843.023438 980.210938 Z M 843.023438 980.210938 " fill-opacity="1" fill-rule="nonzero"/><path fill="#000000" d="M 969.925781 979.558594 C 966.0625 977.472656 961.9375 976.386719 957.546875 976.308594 C 956.355469 976.300781 955.171875 976.371094 953.992188 976.523438 C 952.8125 976.675781 951.648438 976.902344 950.5 977.207031 C 949.351562 977.515625 948.226562 977.898438 947.128906 978.351562 C 946.03125 978.808594 944.96875 979.339844 943.941406 979.9375 C 942.914062 980.535156 941.929688 981.199219 940.992188 981.933594 C 940.054688 982.664062 939.167969 983.453125 938.335938 984.300781 C 937.503906 985.152344 936.730469 986.050781 936.019531 987.003906 C 935.304688 987.957031 934.660156 988.953125 934.082031 989.992188 C 932.890625 992.144531 931.992188 994.410156 931.394531 996.796875 C 930.792969 999.179688 930.507812 1001.605469 930.539062 1004.0625 C 930.511719 1006.539062 930.796875 1008.976562 931.398438 1011.375 C 931.996094 1013.777344 932.890625 1016.0625 934.082031 1018.230469 C 935.226562 1020.324219 936.628906 1022.230469 938.28125 1023.949219 C 939.933594 1025.671875 941.785156 1027.144531 943.832031 1028.371094 C 945.894531 1029.617188 948.089844 1030.554688 950.414062 1031.191406 C 952.738281 1031.824219 955.105469 1032.132812 957.511719 1032.109375 C 961.769531 1032.066406 965.808594 1031.113281 969.632812 1029.25 C 973.757812 1027.351562 977.417969 1024.792969 980.617188 1021.578125 L 992.414062 1034.382812 C 987.613281 1039.351562 982.054688 1043.238281 975.746094 1046.050781 C 969.644531 1048.886719 963.234375 1050.328125 956.503906 1050.371094 C 952.355469 1050.421875 948.273438 1049.9375 944.25 1048.917969 C 940.230469 1047.898438 936.40625 1046.378906 932.78125 1044.359375 C 929.296875 1042.402344 926.132812 1040.019531 923.292969 1037.207031 C 920.453125 1034.394531 918.035156 1031.253906 916.046875 1027.785156 C 914 1024.21875 912.460938 1020.445312 911.429688 1016.464844 C 910.398438 1012.480469 909.914062 1008.433594 909.96875 1004.324219 C 909.941406 1002.308594 910.054688 1000.304688 910.300781 998.304688 C 910.546875 996.304688 910.929688 994.332031 911.445312 992.386719 C 911.960938 990.4375 912.609375 988.535156 913.382812 986.675781 C 914.160156 984.816406 915.058594 983.019531 916.078125 981.285156 C 917.097656 979.546875 918.234375 977.890625 919.480469 976.308594 C 920.726562 974.726562 922.074219 973.234375 923.523438 971.835938 C 924.976562 970.441406 926.511719 969.148438 928.140625 967.957031 C 929.765625 966.769531 931.464844 965.699219 933.238281 964.742188 C 936.925781 962.738281 940.804688 961.234375 944.878906 960.226562 C 948.953125 959.21875 953.089844 958.742188 957.285156 958.792969 C 963.898438 958.820312 970.234375 960.152344 976.296875 962.789062 C 982.378906 965.304688 987.707031 968.921875 992.285156 973.644531 L 980.617188 988.042969 C 977.632812 984.484375 974.070312 981.65625 969.925781 979.558594 Z M 969.925781 979.558594 " fill-opacity="1" fill-rule="nonzero"/><path fill="#000000" d="M 1005.640625 960.355469 L 1025.660156 960.355469 L 1025.660156 1049.136719 L 1005.640625 1049.136719 Z M 1005.640625 960.355469 " fill-opacity="1" fill-rule="nonzero"/><path fill="#000000" d="M 1046.589844 960.355469 L 1114.21875 960.355469 L 1114.21875 976.960938 L 1066.640625 976.960938 L 1066.640625 996.265625 L 1109.40625 996.265625 L 1109.40625 1012.871094 L 1066.640625 1012.871094 L 1066.640625 1032.367188 L 1115.613281 1032.367188 L 1115.613281 1048.976562 L 1046.589844 1048.976562 Z M 1046.589844 960.355469 " fill-opacity="1" fill-rule="nonzero"/><path fill="#000000" d="M 1123.871094 960.355469 L 1198.0625 960.355469 L 1198.0625 977.351562 L 1170.925781 977.351562 L 1170.925781 1049.136719 L 1150.875 1049.136719 L 1150.875 977.351562 L 1123.871094 977.351562 Z M 1123.871094 960.355469 " fill-opacity="1" fill-rule="nonzero"/><path fill="#000000" d="M 1285.222656 960.355469 L 1252.722656 1020.472656 L 1252.722656 1049.136719 L 1232.703125 1049.136719 L 1232.703125 1020.996094 L 1199.980469 960.355469 L 1220.128906 960.355469 L 1242.875 1000.164062 L 1265.074219 960.355469 Z M 1285.222656 960.355469 " fill-opacity="1" fill-rule="nonzero"/><g clip-path="url(#f238c3ea4a)"><path fill="#faa41a" d="M 458.445312 727.605469 C 362.316406 727.605469 284.386719 798.90625 284.386719 886.84375 C 284.386719 974.78125 362.378906 1046.082031 458.445312 1046.082031 C 554.507812 1046.082031 632.535156 974.78125 632.535156 886.84375 C 632.535156 798.90625 554.605469 727.605469 458.445312 727.605469 Z M 485.027344 963.375 C 485.027344 984.238281 486.523438 984.953125 501.277344 985.929688 L 516.289062 986.808594 L 516.941406 987.132812 C 517.671875 987.628906 518.316406 988.222656 518.871094 988.90625 C 519.429688 989.59375 519.878906 990.34375 520.214844 991.160156 C 520.554688 991.980469 520.765625 992.828125 520.855469 993.707031 C 520.945312 994.585938 520.90625 995.460938 520.742188 996.328125 C 520.707031 997.105469 520.558594 997.859375 520.289062 998.589844 C 520.023438 999.320312 519.652344 999.992188 519.179688 1000.609375 C 518.707031 1001.226562 518.152344 1001.757812 517.511719 1002.203125 C 516.875 1002.644531 516.1875 1002.984375 515.445312 1003.21875 L 514.503906 1003.21875 C 502.707031 1002.664062 482.003906 1002.375 459.515625 1002.375 C 435.664062 1002.375 415.125 1002.664062 403.132812 1003.21875 L 402.191406 1003.21875 C 401.449219 1002.984375 400.761719 1002.644531 400.125 1002.195312 C 399.488281 1001.75 398.933594 1001.21875 398.460938 1000.605469 C 397.988281 999.988281 397.617188 999.316406 397.347656 998.585938 C 397.082031 997.855469 396.929688 997.105469 396.894531 996.328125 C 396.726562 995.460938 396.6875 994.585938 396.777344 993.707031 C 396.867188 992.828125 397.082031 991.980469 397.417969 991.160156 C 397.757812 990.34375 398.203125 989.59375 398.761719 988.90625 C 399.320312 988.222656 399.964844 987.628906 400.695312 987.132812 L 401.34375 986.808594 L 416.390625 985.929688 C 430.949219 984.953125 432.414062 984.238281 432.445312 963.179688 C 375.121094 956.679688 339.371094 928.992188 339.371094 888.824219 C 339.371094 848.660156 370.015625 822.59375 424.90625 815.316406 C 425.101562 820.546875 425.261719 827.566406 425.359375 835.625 C 422.171875 836.414062 419.042969 837.390625 415.96875 838.550781 L 414.539062 839.070312 C 411.863281 839.96875 409.324219 841.167969 406.933594 842.667969 C 404.539062 844.164062 402.351562 845.921875 400.375 847.9375 C 398.398438 849.957031 396.683594 852.175781 395.234375 854.597656 C 393.78125 857.019531 392.636719 859.582031 391.789062 862.273438 L 391.789062 862.632812 C 389.3125 870.929688 388.285156 879.398438 388.703125 888.046875 L 388.703125 889.019531 C 388.285156 897.667969 389.3125 906.140625 391.789062 914.433594 L 391.953125 914.855469 C 392.585938 916.886719 393.398438 918.839844 394.390625 920.722656 C 395.382812 922.601562 396.539062 924.375 397.859375 926.042969 C 399.175781 927.707031 400.636719 929.242188 402.242188 930.636719 C 403.84375 932.035156 405.558594 933.273438 407.390625 934.355469 C 418.179688 941.539062 438.816406 945.242188 459.386719 945.242188 C 481.777344 945.242188 504.332031 940.824219 514.015625 932.242188 C 516.953125 930.039062 519.480469 927.4375 521.597656 924.433594 C 523.714844 921.429688 525.3125 918.171875 526.398438 914.660156 L 526.398438 914.304688 C 528.929688 906.019531 530.011719 897.546875 529.648438 888.890625 L 529.648438 887.914062 C 530.011719 879.257812 528.929688 870.789062 526.398438 862.503906 L 526.398438 862.144531 C 525.558594 859.46875 524.421875 856.925781 522.984375 854.515625 C 521.550781 852.109375 519.855469 849.898438 517.898438 847.886719 C 515.941406 845.878906 513.777344 844.125 511.410156 842.621094 C 509.039062 841.121094 506.527344 839.917969 503.875 839.007812 L 502.21875 838.550781 C 496.640625 836.429688 490.910156 834.867188 485.027344 833.871094 L 485.027344 935.785156 C 476.429688 937.328125 467.761719 938.078125 459.027344 938.027344 C 449.980469 938.085938 441.011719 937.273438 432.121094 935.589844 L 432.121094 911.996094 C 432.574219 890.027344 433.0625 855.15625 432.511719 830.523438 C 432.511719 829.941406 432.089844 813.234375 432.089844 812.683594 C 432.089844 796.433594 430.429688 794.84375 418.308594 793.507812 L 401.246094 791.527344 C 400.558594 791.15625 399.929688 790.695312 399.367188 790.152344 C 398.800781 789.605469 398.320312 788.996094 397.921875 788.320312 C 397.523438 787.644531 397.222656 786.929688 397.019531 786.171875 C 396.820312 785.414062 396.722656 784.640625 396.730469 783.859375 C 396.625 783.089844 396.625 782.320312 396.730469 781.550781 C 396.835938 780.78125 397.039062 780.042969 397.347656 779.328125 C 397.652344 778.617188 398.046875 777.957031 398.535156 777.351562 C 399.019531 776.746094 399.578125 776.21875 400.207031 775.765625 L 400.824219 775.375 L 401.539062 775.375 C 414.019531 773.882812 429.78125 771.117188 445.867188 767.542969 C 454.347656 765.496094 462.117188 762.929688 468 761.042969 C 471.140625 759.765625 474.390625 758.890625 477.746094 758.410156 C 478.628906 758.363281 479.496094 758.457031 480.347656 758.6875 C 481.199219 758.917969 481.992188 759.277344 482.730469 759.761719 C 483.46875 760.246094 484.109375 760.835938 484.65625 761.527344 C 485.207031 762.21875 485.632812 762.976562 485.9375 763.808594 L 486.132812 764.457031 L 486.132812 765.171875 C 485.480469 771.117188 485.09375 783.5 485.09375 798.285156 L 485.09375 814.339844 C 544.855469 820.125 578.523438 846.578125 578.523438 889.085938 C 578.457031 929.1875 542.582031 957.007812 485.027344 963.375 Z M 485.027344 963.375 " fill-opacity="1" fill-rule="nonzero"/></g><path fill="#faa41a" d="M 559.511719 1036.203125 L 576.703125 1036.203125 L 576.703125 1039.453125 L 569.976562 1039.453125 L 569.976562 1058.464844 L 566.207031 1058.464844 L 566.207031 1039.453125 L 559.511719 1039.453125 Z M 580.019531 1036.203125 L 584.40625 1036.203125 L 591.75 1051.28125 L 599.03125 1036.203125 L 603.644531 1036.203125 L 603.644531 1058.53125 L 600.199219 1058.53125 L 600.199219 1041.53125 L 592.953125 1056.289062 L 590.644531 1056.289062 L 583.59375 1041.628906 L 583.59375 1058.628906 L 580.148438 1058.628906 Z M 580.019531 1036.203125 " fill-opacity="1" fill-rule="nonzero"/></g></g></g></svg>